<svg width="80" height="80" viewBox="0 0 80 80" fill="none" xmlns="http://www.w3.org/2000/svg">
<path d="M0 74.2856H80V80H0V74.2856ZM71.4286 25.7135C72.1863 25.7135 72.9131 25.4124 73.4489 24.8766C73.9847 24.3408 74.2857 23.614 74.2857 22.8563V14.2847C74.2855 13.6975 74.1043 13.1247 73.7669 12.6441C73.4295 12.1635 72.9522 11.7986 72.4 11.599L40.9714 0.170216C40.3437 -0.0567386 39.6563 -0.0567386 39.0286 0.170216L7.6 11.599C7.0478 11.7986 6.57052 12.1635 6.23311 12.6441C5.89569 13.1247 5.71454 13.6975 5.71429 14.2847V22.8563C5.71429 23.614 6.01531 24.3408 6.55112 24.8766C7.08694 25.4124 7.81367 25.7135 8.57143 25.7135H11.4286V62.8569H5.71429V68.5713H74.2857V62.8569H68.5714V25.7135H71.4286ZM11.4286 16.2847L40 5.88459L68.5714 16.2847V19.9991H11.4286V16.2847ZM45.7143 62.8569H34.2857V25.7135H45.7143V62.8569ZM17.1429 25.7135H28.5714V62.8569H17.1429V25.7135ZM62.8571 62.8569H51.4286V25.7135H62.8571V62.8569Z" fill="white"/>
</svg>
