<svg width="56" height="64" viewBox="0 0 56 64" fill="none" xmlns="http://www.w3.org/2000/svg">
<path fill-rule="evenodd" clip-rule="evenodd" d="M8 0C5.87827 0 3.84344 0.842854 2.34315 2.34315C0.842854 3.84344 0 5.87827 0 8V64L14 56L28 64L42 56L56 64V8C56 5.87827 55.1571 3.84344 53.6569 2.34315C52.1566 0.842854 50.1217 0 48 0H8ZM18 12C16.4087 12 14.8826 12.6321 13.7574 13.7574C12.6321 14.8826 12 16.4087 12 18C12 19.5913 12.6321 21.1174 13.7574 22.2426C14.8826 23.3679 16.4087 24 18 24C19.5913 24 21.1174 23.3679 22.2426 22.2426C23.3679 21.1174 24 19.5913 24 18C24 16.4087 23.3679 14.8826 22.2426 13.7574C21.1174 12.6321 19.5913 12 18 12ZM42.828 13.172C42.0779 12.4221 41.0607 12.0009 40 12.0009C38.9393 12.0009 37.9221 12.4221 37.172 13.172L13.172 37.172C12.79 37.541 12.4852 37.9824 12.2756 38.4704C12.066 38.9584 11.9556 39.4833 11.951 40.0144C11.9464 40.5455 12.0476 41.0722 12.2487 41.5638C12.4498 42.0554 12.7468 42.502 13.1224 42.8776C13.498 43.2532 13.9446 43.5502 14.4362 43.7513C14.9278 43.9524 15.4545 44.0536 15.9856 44.049C16.5167 44.0444 17.0416 43.934 17.5296 43.7244C18.0176 43.5148 18.459 43.21 18.828 42.828L42.828 18.828C43.5779 18.0779 43.9991 17.0607 43.9991 16C43.9991 14.9393 43.5779 13.9221 42.828 13.172ZM38 32C36.4087 32 34.8826 32.6321 33.7574 33.7574C32.6321 34.8826 32 36.4087 32 38C32 39.5913 32.6321 41.1174 33.7574 42.2426C34.8826 43.3679 36.4087 44 38 44C39.5913 44 41.1174 43.3679 42.2426 42.2426C43.3679 41.1174 44 39.5913 44 38C44 36.4087 43.3679 34.8826 42.2426 33.7574C41.1174 32.6321 39.5913 32 38 32Z" fill="white"/>
</svg>
