<svg width="471" height="901" viewBox="0 0 471 901" fill="none" xmlns="http://www.w3.org/2000/svg">
<path fill-rule="evenodd" clip-rule="evenodd" d="M24.9543 466.767C52.8751 454.484 70.7959 449.682 114.719 452.318L116.493 373.813C64.6486 368.497 34.1071 375.48 -9.71417 395.625C-49.8751 415.99 -79.0553 437.014 -117.372 500.102L-46.9644 538.858C-19.9066 491.993 2.11388 480.09 24.9543 466.767Z" stroke="#74819A" stroke-width="11.9118"/>
<path fill-rule="evenodd" clip-rule="evenodd" d="M81.6947 724.21C137.158 756.231 206.487 716.204 206.487 652.161L206.487 113.982C206.487 49.9388 137.158 9.9115 81.6947 41.9333L-384.381 311.022C-439.845 343.044 -439.845 423.099 -384.381 455.121L81.6947 724.21ZM115.729 625.213C115.729 631.367 109.066 635.214 103.736 632.137L-315.665 389.995C-320.995 386.918 -320.995 379.225 -315.665 376.147L103.736 134.006C109.066 130.929 115.729 134.775 115.729 140.93L115.729 625.213Z" stroke="#74819A" stroke-width="11.9118"/>
</svg>
