<svg width="" height="" viewBox="0 0 416 718" fill="none" xmlns="http://www.w3.org/2000/svg">
<path fill-rule="evenodd" clip-rule="evenodd" d="M458.576 449.411C486.497 437.127 504.418 432.326 548.341 434.962L550.115 356.456C498.271 351.14 467.729 358.124 423.908 378.269C383.747 398.634 354.567 419.658 316.25 482.745L386.658 521.502C413.715 474.636 435.736 462.734 458.576 449.411Z" stroke="#74819A" stroke-width="11.9118"/>
<path fill-rule="evenodd" clip-rule="evenodd" d="M513.695 700.21C569.158 732.232 638.487 692.205 638.487 628.161L638.487 89.9826C638.487 25.939 569.158 -14.0883 513.695 17.9335L47.6188 287.023C-7.84454 319.044 -7.84474 399.099 47.6188 431.121L513.695 700.21ZM547.729 601.213C547.729 607.368 541.066 611.214 535.736 608.137L116.335 365.996C111.005 362.918 111.005 355.225 116.335 352.148L535.736 110.006C541.066 106.929 547.729 110.776 547.729 116.93L547.729 601.213Z" stroke="#74819A" stroke-width="11.9118"/>
</svg>
