<svg width="102" height="105" viewBox="0 0 102 105" fill="none" xmlns="http://www.w3.org/2000/svg">
<path d="M21.1405 6.59985H84.8594C89.5193 6.59985 93.2999 10.3914 93.2999 15.0724V95.5274C93.2999 100.208 89.5193 104 84.8594 104H21.1405C16.4806 104 12.7 100.208 12.7 95.5274V15.0724C12.7 10.3914 16.4806 6.59985 21.1405 6.59985Z" fill="white" stroke="black"/>
<mask id="path-2-inside-1_82_273" fill="white">
<path d="M84.5391 104.5H20.6605C15.5542 104.5 11.3999 100.333 11.3999 95.2103V14.5896C11.3999 9.46736 15.5542 5.30005 20.6605 5.30005H84.5391C89.6454 5.30005 93.7996 9.46736 93.7996 14.5896V95.2103C93.7996 100.333 89.6454 104.5 84.5391 104.5ZM20.6605 5.89724C15.8825 5.89724 11.9952 9.79667 11.9952 14.5896V95.2103C11.9952 100.003 15.8825 103.903 20.6605 103.903H84.5391C89.3171 103.903 93.2043 100.003 93.2043 95.2103V14.5896C93.2043 9.79667 89.3171 5.89724 84.5391 5.89724H20.6605Z"/>
</mask>
<path d="M84.5391 104.5H20.6605C15.5542 104.5 11.3999 100.333 11.3999 95.2103V14.5896C11.3999 9.46736 15.5542 5.30005 20.6605 5.30005H84.5391C89.6454 5.30005 93.7996 9.46736 93.7996 14.5896V95.2103C93.7996 100.333 89.6454 104.5 84.5391 104.5ZM20.6605 5.89724C15.8825 5.89724 11.9952 9.79667 11.9952 14.5896V95.2103C11.9952 100.003 15.8825 103.903 20.6605 103.903H84.5391C89.3171 103.903 93.2043 100.003 93.2043 95.2103V14.5896C93.2043 9.79667 89.3171 5.89724 84.5391 5.89724H20.6605Z" fill="#FF450D"/>
<path d="M84.5391 103.5H20.6605V105.5H84.5391V103.5ZM20.6605 103.5C16.1094 103.5 12.3999 99.7833 12.3999 95.2103H10.3999C10.3999 100.882 14.999 105.5 20.6605 105.5V103.5ZM12.3999 95.2103V14.5896H10.3999V95.2103H12.3999ZM12.3999 14.5896C12.3999 10.0167 16.1094 6.30005 20.6605 6.30005V4.30005C14.999 4.30005 10.3999 8.91802 10.3999 14.5896H12.3999ZM20.6605 6.30005H84.5391V4.30005H20.6605V6.30005ZM84.5391 6.30005C89.0901 6.30005 92.7996 10.0167 92.7996 14.5896H94.7996C94.7996 8.91802 90.2006 4.30005 84.5391 4.30005V6.30005ZM92.7996 14.5896V95.2103H94.7996V14.5896H92.7996ZM92.7996 95.2103C92.7996 99.7833 89.0901 103.5 84.5391 103.5V105.5C90.2006 105.5 94.7996 100.882 94.7996 95.2103H92.7996ZM20.6605 4.89724C15.3272 4.89724 10.9952 9.24734 10.9952 14.5896H12.9952C12.9952 10.346 16.4377 6.89724 20.6605 6.89724V4.89724ZM10.9952 14.5896V95.2103H12.9952V14.5896H10.9952ZM10.9952 95.2103C10.9952 100.553 15.3272 104.903 20.6605 104.903V102.903C16.4377 102.903 12.9952 99.454 12.9952 95.2103H10.9952ZM20.6605 104.903H84.5391V102.903H20.6605V104.903ZM84.5391 104.903C89.8723 104.903 94.2043 100.553 94.2043 95.2103H92.2043C92.2043 99.454 88.7618 102.903 84.5391 102.903V104.903ZM94.2043 95.2103V14.5896H92.2043V95.2103H94.2043ZM94.2043 14.5896C94.2043 9.24734 89.8723 4.89724 84.5391 4.89724V6.89724C88.7618 6.89724 92.2043 10.346 92.2043 14.5896H94.2043ZM84.5391 4.89724H20.6605V6.89724H84.5391V4.89724Z" fill="black" mask="url(#path-2-inside-1_82_273)"/>
<path d="M24.3422 10.5999H81.6576C86.3158 10.5999 90.0999 14.4129 90.0999 19.1263V92.2734C90.0999 96.9869 86.3158 100.8 81.6576 100.8H24.3422C19.6841 100.8 15.8999 96.9869 15.8999 92.2734V19.1263C15.8999 14.4129 19.6841 10.5999 24.3422 10.5999Z" fill="white" stroke="black"/>
<mask id="path-5-inside-2_82_273" fill="white">
<path d="M81.3353 101.3H23.8642C18.7558 101.3 14.5999 97.1071 14.5999 91.9534V18.6467C14.5999 13.4929 18.7558 9.30005 23.8642 9.30005H81.3353C86.4437 9.30005 90.5997 13.4929 90.5997 18.6467V91.9534C90.5997 97.1071 86.4437 101.3 81.3353 101.3ZM23.8642 9.9009C19.0842 9.9009 15.1954 13.8242 15.1954 18.6467V91.9534C15.1954 96.7758 19.0842 100.699 23.8642 100.699H81.3353C86.1152 100.699 90.004 96.7758 90.004 91.9534V18.6467C90.004 13.8242 86.1152 9.9009 81.3353 9.9009H23.8642Z"/>
</mask>
<path d="M81.3353 101.3H23.8642C18.7558 101.3 14.5999 97.1071 14.5999 91.9534V18.6467C14.5999 13.4929 18.7558 9.30005 23.8642 9.30005H81.3353C86.4437 9.30005 90.5997 13.4929 90.5997 18.6467V91.9534C90.5997 97.1071 86.4437 101.3 81.3353 101.3ZM23.8642 9.9009C19.0842 9.9009 15.1954 13.8242 15.1954 18.6467V91.9534C15.1954 96.7758 19.0842 100.699 23.8642 100.699H81.3353C86.1152 100.699 90.004 96.7758 90.004 91.9534V18.6467C90.004 13.8242 86.1152 9.9009 81.3353 9.9009H23.8642Z" fill="#FF450D"/>
<path d="M81.3353 100.3H23.8642V102.3H81.3353V100.3ZM23.8642 100.3C19.3164 100.3 15.5999 96.5632 15.5999 91.9534H13.5999C13.5999 97.6511 18.1952 102.3 23.8642 102.3V100.3ZM15.5999 91.9534V18.6467H13.5999V91.9534H15.5999ZM15.5999 18.6467C15.5999 14.0369 19.3164 10.3 23.8642 10.3V8.30005C18.1952 8.30005 13.5999 12.949 13.5999 18.6467H15.5999ZM23.8642 10.3H81.3353V8.30005H23.8642V10.3ZM81.3353 10.3C85.8831 10.3 89.5997 14.0369 89.5997 18.6467H91.5997C91.5997 12.949 87.0043 8.30005 81.3353 8.30005V10.3ZM89.5997 18.6467V91.9534H91.5997V18.6467H89.5997ZM89.5997 91.9534C89.5997 96.5632 85.8831 100.3 81.3353 100.3V102.3C87.0043 102.3 91.5997 97.6511 91.5997 91.9534H89.5997ZM23.8642 8.9009C18.5236 8.9009 14.1954 13.2803 14.1954 18.6467H16.1954C16.1954 14.3681 19.6448 10.9009 23.8642 10.9009V8.9009ZM14.1954 18.6467V91.9534H16.1954V18.6467H14.1954ZM14.1954 91.9534C14.1954 97.3197 18.5236 101.699 23.8642 101.699V99.6992C19.6448 99.6992 16.1954 96.2319 16.1954 91.9534H14.1954ZM23.8642 101.699H81.3353V99.6992H23.8642V101.699ZM81.3353 101.699C86.6758 101.699 91.004 97.3197 91.004 91.9534H89.004C89.004 96.2319 85.5546 99.6992 81.3353 99.6992V101.699ZM91.004 91.9534V18.6467H89.004V91.9534H91.004ZM91.004 18.6467C91.004 13.2803 86.6758 8.9009 81.3353 8.9009V10.9009C85.5546 10.9009 89.004 14.3681 89.004 18.6467H91.004ZM81.3353 8.9009H23.8642V10.9009H81.3353V8.9009Z" fill="black" mask="url(#path-5-inside-2_82_273)"/>
<path d="M40.6703 1.80005H65.3296C67.5116 1.80005 69.2999 3.6133 69.2999 5.87441V10.3257C69.2999 12.5868 67.5116 14.4 65.3296 14.4H40.6703C38.4883 14.4 36.7 12.5868 36.7 10.3257V5.87441C36.7 3.6133 38.4883 1.80005 40.6703 1.80005Z" fill="white" stroke="black"/>
<mask id="path-8-inside-3_82_273" fill="white">
<path d="M65.0062 14.9H40.1936C37.5504 14.9 35.3999 12.6825 35.3999 9.95683V5.44317C35.3999 2.71752 37.5504 0.5 40.1936 0.5H65.0062C67.6494 0.5 69.7999 2.71752 69.7999 5.44317V9.95683C69.7999 12.6825 67.6494 14.9 65.0062 14.9ZM40.1936 1.10943C37.8762 1.10943 35.9909 3.05352 35.9909 5.44317V9.95683C35.9909 12.3465 37.8762 14.2906 40.1936 14.2906H65.0062C67.3236 14.2906 69.2089 12.3465 69.2089 9.95683V5.44317C69.2089 3.05352 67.3236 1.10943 65.0062 1.10943H40.1936Z"/>
</mask>
<path d="M65.0062 14.9H40.1936C37.5504 14.9 35.3999 12.6825 35.3999 9.95683V5.44317C35.3999 2.71752 37.5504 0.5 40.1936 0.5H65.0062C67.6494 0.5 69.7999 2.71752 69.7999 5.44317V9.95683C69.7999 12.6825 67.6494 14.9 65.0062 14.9ZM40.1936 1.10943C37.8762 1.10943 35.9909 3.05352 35.9909 5.44317V9.95683C35.9909 12.3465 37.8762 14.2906 40.1936 14.2906H65.0062C67.3236 14.2906 69.2089 12.3465 69.2089 9.95683V5.44317C69.2089 3.05352 67.3236 1.10943 65.0062 1.10943H40.1936Z" fill="#FF450D"/>
<path d="M65.0062 13.9H40.1936V15.9H65.0062V13.9ZM40.1936 13.9C38.1314 13.9 36.3999 12.1594 36.3999 9.95683H34.3999C34.3999 13.2056 36.9694 15.9 40.1936 15.9V13.9ZM36.3999 9.95683V5.44317H34.3999V9.95683H36.3999ZM36.3999 5.44317C36.3999 3.24064 38.1314 1.5 40.1936 1.5V-0.5C36.9694 -0.5 34.3999 2.1944 34.3999 5.44317H36.3999ZM40.1936 1.5H65.0062V-0.5H40.1936V1.5ZM65.0062 1.5C67.0684 1.5 68.7999 3.24064 68.7999 5.44317H70.7999C70.7999 2.1944 68.2304 -0.5 65.0062 -0.5V1.5ZM68.7999 5.44317V9.95683H70.7999V5.44317H68.7999ZM68.7999 9.95683C68.7999 12.1594 67.0684 13.9 65.0062 13.9V15.9C68.2304 15.9 70.7999 13.2056 70.7999 9.95683H68.7999ZM40.1936 0.109432C37.2952 0.109432 34.9909 2.5304 34.9909 5.44317H36.9909C36.9909 3.57664 38.4572 2.10943 40.1936 2.10943V0.109432ZM34.9909 5.44317V9.95683H36.9909V5.44317H34.9909ZM34.9909 9.95683C34.9909 12.8696 37.2952 15.2906 40.1936 15.2906V13.2906C38.4572 13.2906 36.9909 11.8234 36.9909 9.95683H34.9909ZM40.1936 15.2906H65.0062V13.2906H40.1936V15.2906ZM65.0062 15.2906C67.9046 15.2906 70.2089 12.8696 70.2089 9.95683H68.2089C68.2089 11.8234 66.7426 13.2906 65.0062 13.2906V15.2906ZM70.2089 9.95683V5.44317H68.2089V9.95683H70.2089ZM70.2089 5.44317C70.2089 2.5304 67.9046 0.109432 65.0062 0.109432V2.10943C66.7426 2.10943 68.2089 3.57664 68.2089 5.44317H70.2089ZM65.0062 0.109432H40.1936V2.10943H65.0062V0.109432Z" fill="black" mask="url(#path-8-inside-3_82_273)"/>
<mask id="path-10-inside-4_82_273" fill="white">
<path d="M79.4515 78.9H26.5483C24.8123 78.9 23.3999 77.4613 23.3999 75.693V72.5071C23.3999 70.7388 24.8123 69.3 26.5483 69.3H79.4515C81.1875 69.3 82.5999 70.7388 82.5999 72.5071V75.693C82.5999 77.4613 81.1875 78.9 79.4515 78.9ZM26.5483 69.9077C25.1412 69.9077 23.9964 71.0738 23.9964 72.5071V75.693C23.9964 77.1263 25.1412 78.2924 26.5483 78.2924H79.4515C80.8586 78.2924 82.0034 77.1263 82.0034 75.693V72.5071C82.0034 71.0738 80.8586 69.9077 79.4515 69.9077H26.5483Z"/>
</mask>
<path d="M79.4515 78.9H26.5483C24.8123 78.9 23.3999 77.4613 23.3999 75.693V72.5071C23.3999 70.7388 24.8123 69.3 26.5483 69.3H79.4515C81.1875 69.3 82.5999 70.7388 82.5999 72.5071V75.693C82.5999 77.4613 81.1875 78.9 79.4515 78.9ZM26.5483 69.9077C25.1412 69.9077 23.9964 71.0738 23.9964 72.5071V75.693C23.9964 77.1263 25.1412 78.2924 26.5483 78.2924H79.4515C80.8586 78.2924 82.0034 77.1263 82.0034 75.693V72.5071C82.0034 71.0738 80.8586 69.9077 79.4515 69.9077H26.5483Z" fill="#FF450D"/>
<path d="M79.4515 77.9H26.5483V79.9H79.4515V77.9ZM26.5483 77.9C25.3819 77.9 24.3999 76.9265 24.3999 75.693H22.3999C22.3999 77.9961 24.2427 79.9 26.5483 79.9V77.9ZM24.3999 75.693V72.5071H22.3999V75.693H24.3999ZM24.3999 72.5071C24.3999 71.2736 25.3819 70.3 26.5483 70.3V68.3C24.2427 68.3 22.3999 70.204 22.3999 72.5071H24.3999ZM26.5483 70.3H79.4515V68.3H26.5483V70.3ZM79.4515 70.3C80.6179 70.3 81.5999 71.2736 81.5999 72.5071H83.5999C83.5999 70.204 81.7571 68.3 79.4515 68.3V70.3ZM81.5999 72.5071V75.693H83.5999V72.5071H81.5999ZM81.5999 75.693C81.5999 76.9265 80.6179 77.9 79.4515 77.9V79.9C81.7571 79.9 83.5999 77.9961 83.5999 75.693H81.5999ZM26.5483 68.9077C24.5716 68.9077 22.9964 70.539 22.9964 72.5071H24.9964C24.9964 71.6086 25.7108 70.9077 26.5483 70.9077V68.9077ZM22.9964 72.5071V75.693H24.9964V72.5071H22.9964ZM22.9964 75.693C22.9964 77.6611 24.5716 79.2924 26.5483 79.2924V77.2924C25.7108 77.2924 24.9964 76.5915 24.9964 75.693H22.9964ZM26.5483 79.2924H79.4515V77.2924H26.5483V79.2924ZM79.4515 79.2924C81.4282 79.2924 83.0034 77.6611 83.0034 75.693H81.0034C81.0034 76.5915 80.289 77.2924 79.4515 77.2924V79.2924ZM83.0034 75.693V72.5071H81.0034V75.693H83.0034ZM83.0034 72.5071C83.0034 70.539 81.4282 68.9077 79.4515 68.9077V70.9077C80.289 70.9077 81.0034 71.6086 81.0034 72.5071H83.0034ZM79.4515 68.9077H26.5483V70.9077H79.4515V68.9077Z" fill="black" mask="url(#path-10-inside-4_82_273)"/>
<mask id="path-12-inside-5_82_273" fill="white">
<path d="M79.4515 92.4999H26.5483C24.8123 92.4999 23.3999 91.0612 23.3999 89.2929V86.1069C23.3999 84.3386 24.8123 82.8999 26.5483 82.8999H79.4515C81.1875 82.8999 82.5999 84.3386 82.5999 86.1069V89.2929C82.5999 91.0612 81.1875 92.4999 79.4515 92.4999ZM26.5483 83.5076C25.1412 83.5076 23.9964 84.6736 23.9964 86.1069V89.2929C23.9964 90.7262 25.1412 91.8923 26.5483 91.8923H79.4515C80.8586 91.8923 82.0034 90.7262 82.0034 89.2929V86.1069C82.0034 84.6736 80.8586 83.5076 79.4515 83.5076H26.5483Z"/>
</mask>
<path d="M79.4515 92.4999H26.5483C24.8123 92.4999 23.3999 91.0612 23.3999 89.2929V86.1069C23.3999 84.3386 24.8123 82.8999 26.5483 82.8999H79.4515C81.1875 82.8999 82.5999 84.3386 82.5999 86.1069V89.2929C82.5999 91.0612 81.1875 92.4999 79.4515 92.4999ZM26.5483 83.5076C25.1412 83.5076 23.9964 84.6736 23.9964 86.1069V89.2929C23.9964 90.7262 25.1412 91.8923 26.5483 91.8923H79.4515C80.8586 91.8923 82.0034 90.7262 82.0034 89.2929V86.1069C82.0034 84.6736 80.8586 83.5076 79.4515 83.5076H26.5483Z" fill="#FF450D"/>
<path d="M79.4515 91.4999H26.5483V93.4999H79.4515V91.4999ZM26.5483 91.4999C25.3819 91.4999 24.3999 90.5264 24.3999 89.2929H22.3999C22.3999 91.596 24.2427 93.4999 26.5483 93.4999V91.4999ZM24.3999 89.2929V86.1069H22.3999V89.2929H24.3999ZM24.3999 86.1069C24.3999 84.8734 25.3819 83.8999 26.5483 83.8999V81.8999C24.2427 81.8999 22.3999 83.8038 22.3999 86.1069H24.3999ZM26.5483 83.8999H79.4515V81.8999H26.5483V83.8999ZM79.4515 83.8999C80.6179 83.8999 81.5999 84.8734 81.5999 86.1069H83.5999C83.5999 83.8038 81.7571 81.8999 79.4515 81.8999V83.8999ZM81.5999 86.1069V89.2929H83.5999V86.1069H81.5999ZM81.5999 89.2929C81.5999 90.5264 80.6179 91.4999 79.4515 91.4999V93.4999C81.7571 93.4999 83.5999 91.596 83.5999 89.2929H81.5999ZM26.5483 82.5076C24.5716 82.5076 22.9964 84.1388 22.9964 86.1069H24.9964C24.9964 85.2084 25.7108 84.5076 26.5483 84.5076V82.5076ZM22.9964 86.1069V89.2929H24.9964V86.1069H22.9964ZM22.9964 89.2929C22.9964 91.261 24.5716 92.8923 26.5483 92.8923V90.8923C25.7108 90.8923 24.9964 90.1914 24.9964 89.2929H22.9964ZM26.5483 92.8923H79.4515V90.8923H26.5483V92.8923ZM79.4515 92.8923C81.4282 92.8923 83.0034 91.261 83.0034 89.2929H81.0034C81.0034 90.1914 80.289 90.8923 79.4515 90.8923V92.8923ZM83.0034 89.2929V86.1069H81.0034V89.2929H83.0034ZM83.0034 86.1069C83.0034 84.1388 81.4282 82.5076 79.4515 82.5076V84.5076C80.289 84.5076 81.0034 85.2084 81.0034 86.1069H83.0034ZM79.4515 82.5076H26.5483V84.5076H79.4515V82.5076Z" fill="black" mask="url(#path-12-inside-5_82_273)"/>
<path d="M8.80672 19.4001H96.3933C99.1024 19.4001 101.3 21.6005 101.3 24.3168V56.6835C101.3 59.3997 99.1024 61.6001 96.3933 61.6001H8.80672C6.09769 61.6001 3.90002 59.3997 3.90002 56.6835V24.3168C3.90002 21.6005 6.09769 19.4001 8.80672 19.4001Z" fill="white" stroke="black"/>
<mask id="path-15-inside-6_82_273" fill="white">
<path d="M96.1139 62.1001H8.28603C5.15077 62.1001 2.59998 59.5359 2.59998 56.3839V23.8163C2.59998 20.6644 5.15077 18.1001 8.28603 18.1001H96.1139C99.2492 18.1001 101.8 20.6644 101.8 23.8163V56.3839C101.8 59.5359 99.2492 62.1001 96.1139 62.1001ZM8.28603 18.6318C5.44241 18.6318 3.12891 20.9575 3.12891 23.8162V56.3839C3.12891 59.2426 5.44241 61.5683 8.28603 61.5683H96.1139C98.9575 61.5683 101.271 59.2426 101.271 56.3839V23.8162C101.271 20.9575 98.9575 18.6318 96.1139 18.6318H8.28603Z"/>
</mask>
<path d="M96.1139 62.1001H8.28603C5.15077 62.1001 2.59998 59.5359 2.59998 56.3839V23.8163C2.59998 20.6644 5.15077 18.1001 8.28603 18.1001H96.1139C99.2492 18.1001 101.8 20.6644 101.8 23.8163V56.3839C101.8 59.5359 99.2492 62.1001 96.1139 62.1001ZM8.28603 18.6318C5.44241 18.6318 3.12891 20.9575 3.12891 23.8162V56.3839C3.12891 59.2426 5.44241 61.5683 8.28603 61.5683H96.1139C98.9575 61.5683 101.271 59.2426 101.271 56.3839V23.8162C101.271 20.9575 98.9575 18.6318 96.1139 18.6318H8.28603Z" fill="#FF450D"/>
<path d="M96.1139 61.1001H8.28603V63.1001H96.1139V61.1001ZM8.28603 61.1001C5.70802 61.1001 3.59998 58.9886 3.59998 56.3839H1.59998C1.59998 60.0832 4.59351 63.1001 8.28603 63.1001V61.1001ZM3.59998 56.3839V23.8163H1.59998V56.3839H3.59998ZM3.59998 23.8163C3.59998 21.2117 5.70803 19.1001 8.28603 19.1001V17.1001C4.5935 17.1001 1.59998 20.1171 1.59998 23.8163H3.59998ZM8.28603 19.1001H96.1139V17.1001H8.28603V19.1001ZM96.1139 19.1001C98.692 19.1001 100.8 21.2117 100.8 23.8163H102.8C102.8 20.1171 99.8065 17.1001 96.1139 17.1001V19.1001ZM100.8 23.8163V56.3839H102.8V23.8163H100.8ZM100.8 56.3839C100.8 58.9886 98.692 61.1001 96.1139 61.1001V63.1001C99.8065 63.1001 102.8 60.0832 102.8 56.3839H100.8ZM8.28603 17.6318C4.88515 17.6318 2.12891 20.4102 2.12891 23.8162H4.12891C4.12891 21.5048 5.99967 19.6318 8.28603 19.6318V17.6318ZM2.12891 23.8162V56.3839H4.12891V23.8162H2.12891ZM2.12891 56.3839C2.12891 59.7899 4.88515 62.5683 8.28603 62.5683V60.5683C5.99966 60.5683 4.12891 58.6953 4.12891 56.3839H2.12891ZM8.28603 62.5683H96.1139V60.5683H8.28603V62.5683ZM96.1139 62.5683C99.5148 62.5683 102.271 59.7899 102.271 56.3839H100.271C100.271 58.6953 98.4003 60.5683 96.1139 60.5683V62.5683ZM102.271 56.3839V23.8162H100.271V56.3839H102.271ZM102.271 23.8162C102.271 20.4102 99.5148 17.6318 96.1139 17.6318V19.6318C98.4003 19.6318 100.271 21.5048 100.271 23.8162H102.271ZM96.1139 17.6318H8.28603V19.6318H96.1139V17.6318Z" fill="black" mask="url(#path-15-inside-6_82_273)"/>
<mask id="path-17-inside-7_82_273" fill="white">
<path d="M36.5996 60.4998C32.9645 60.4998 29.4377 59.4165 26.4005 57.3668C25.0432 56.4519 23.8012 55.3551 22.7092 54.107C19.5434 50.4912 17.7999 45.8009 17.7999 40.9001C17.7999 35.6647 19.7555 30.7426 23.3062 27.0406C26.857 23.3386 31.5781 21.2998 36.5996 21.2998C41.6212 21.2998 46.3426 23.3386 49.8935 27.0406C53.4443 30.7426 55.3999 35.6646 55.3999 40.9001C55.3999 46.1356 53.4444 51.0572 49.8935 54.7591C46.3426 58.4611 41.6214 60.4998 36.5996 60.4998ZM36.5996 21.9097C26.556 21.9097 18.3849 30.4288 18.3849 40.9001C18.3849 45.6482 20.0741 50.1926 23.1413 53.6959C24.1995 54.9054 25.403 55.9681 26.7183 56.8547C29.6606 58.8403 33.0775 59.8898 36.5996 59.8898C46.6436 59.8898 54.8149 51.3711 54.8149 40.9C54.8149 30.429 46.6436 21.9096 36.5996 21.9096V21.9097Z"/>
</mask>
<path d="M36.5996 60.4998C32.9645 60.4998 29.4377 59.4165 26.4005 57.3668C25.0432 56.4519 23.8012 55.3551 22.7092 54.107C19.5434 50.4912 17.7999 45.8009 17.7999 40.9001C17.7999 35.6647 19.7555 30.7426 23.3062 27.0406C26.857 23.3386 31.5781 21.2998 36.5996 21.2998C41.6212 21.2998 46.3426 23.3386 49.8935 27.0406C53.4443 30.7426 55.3999 35.6646 55.3999 40.9001C55.3999 46.1356 53.4444 51.0572 49.8935 54.7591C46.3426 58.4611 41.6214 60.4998 36.5996 60.4998ZM36.5996 21.9097C26.556 21.9097 18.3849 30.4288 18.3849 40.9001C18.3849 45.6482 20.0741 50.1926 23.1413 53.6959C24.1995 54.9054 25.403 55.9681 26.7183 56.8547C29.6606 58.8403 33.0775 59.8898 36.5996 59.8898C46.6436 59.8898 54.8149 51.3711 54.8149 40.9C54.8149 30.429 46.6436 21.9096 36.5996 21.9096V21.9097Z" fill="#FF450D"/>
<path d="M26.4005 57.3668L26.9599 56.5379L26.9595 56.5376L26.4005 57.3668ZM22.7092 54.107L23.4618 53.4485L23.4616 53.4483L22.7092 54.107ZM23.3062 27.0406L22.5846 26.3484L22.5846 26.3484L23.3062 27.0406ZM49.8935 54.7591L49.1718 54.0669L49.1718 54.0669L49.8935 54.7591ZM36.5996 21.9097V22.9097H37.5996V21.9097H36.5996ZM23.1413 53.6959L23.894 53.0374L23.8937 53.0371L23.1413 53.6959ZM26.7183 56.8547L27.2776 56.0257L27.2772 56.0254L26.7183 56.8547ZM36.5996 21.9096V20.9096H35.5996V21.9096H36.5996ZM36.5996 59.4998C33.1655 59.4998 29.8332 58.477 26.9599 56.5379L25.8411 58.1957C29.0421 60.356 32.7635 61.4998 36.5996 61.4998V59.4998ZM26.9595 56.5376C25.6747 55.6716 24.4977 54.6325 23.4618 53.4485L21.9566 54.7655C23.1048 56.0778 24.4116 57.2322 25.8416 58.196L26.9595 56.5376ZM23.4616 53.4483C20.4589 50.0187 18.7999 45.5638 18.7999 40.9001H16.7999C16.7999 46.0379 18.628 50.9637 21.9568 54.7657L23.4616 53.4483ZM18.7999 40.9001C18.7999 35.9168 20.6598 31.2444 24.0279 27.7328L22.5846 26.3484C18.8511 30.2408 16.7999 35.4126 16.7999 40.9001H18.7999ZM24.0279 27.7328C27.3947 24.2227 31.8571 22.2998 36.5996 22.2998V20.2998C31.2991 20.2998 26.3194 22.4546 22.5846 26.3484L24.0279 27.7328ZM36.5996 22.2998C41.3422 22.2998 45.805 24.2226 49.1718 27.7328L50.6152 26.3484C46.8803 22.4545 41.9002 20.2998 36.5996 20.2998V22.2998ZM49.1718 27.7328C52.54 31.2444 54.3999 35.9167 54.3999 40.9001H56.3999C56.3999 35.4125 54.3487 30.2408 50.6152 26.3484L49.1718 27.7328ZM54.3999 40.9001C54.3999 45.8835 52.5401 50.5554 49.1718 54.0669L50.6151 55.4513C54.3487 51.559 56.3999 46.3877 56.3999 40.9001H54.3999ZM49.1718 54.0669C45.8049 57.577 41.3424 59.4998 36.5996 59.4998V61.4998C41.9004 61.4998 46.8802 59.3451 50.6151 55.4513L49.1718 54.0669ZM36.5996 20.9097C25.9648 20.9097 17.3849 29.9162 17.3849 40.9001H19.3849C19.3849 30.9413 27.1472 22.9097 36.5996 22.9097V20.9097ZM17.3849 40.9001C17.3849 45.8853 19.1587 50.6651 22.389 54.3546L23.8937 53.0371C20.9895 49.7201 19.3849 45.4112 19.3849 40.9001H17.3849ZM22.3887 54.3543C23.5031 55.6281 24.7715 56.7483 26.1593 57.6839L27.2772 56.0254C26.0345 55.1878 24.896 54.1827 23.894 53.0374L22.3887 54.3543ZM26.1589 57.6836C29.2651 59.7798 32.8765 60.8898 36.5996 60.8898V58.8898C33.2785 58.8898 30.0562 57.9009 27.2776 56.0257L26.1589 57.6836ZM36.5996 60.8898C47.2347 60.8898 55.8149 51.8837 55.8149 40.9H53.8149C53.8149 50.8584 46.0525 58.8898 36.5996 58.8898V60.8898ZM55.8149 40.9C55.8149 29.9164 47.2347 20.9096 36.5996 20.9096V22.9096C46.0524 22.9096 53.8149 30.9416 53.8149 40.9H55.8149ZM35.5996 21.9096V21.9097H37.5996V21.9096H35.5996Z" fill="black" mask="url(#path-17-inside-7_82_273)"/>
<mask id="path-19-inside-8_82_273" fill="white">
<path d="M36.1995 58.1C33.0241 58.1 29.9327 57.1885 27.2595 55.4642C25.8799 54.5757 24.6341 53.4862 23.5568 52.2261C20.8761 49.0929 19.3999 45.0707 19.3999 40.9003C19.3999 36.3059 21.1474 31.9865 24.3204 28.7378C27.4935 25.4891 31.7123 23.7 36.1996 23.7C40.687 23.7 44.9061 25.4891 48.0792 28.7378C51.2524 31.9865 52.9999 36.3058 52.9999 40.9003C52.9999 45.4947 51.2524 49.8137 48.0792 53.0622C44.9061 56.3109 40.6871 58.1 36.1996 58.1H36.1995ZM36.1995 24.3015C27.2602 24.3015 19.9874 31.7476 19.9874 40.9003C19.9874 44.9248 21.412 48.8063 23.9988 51.8298C25.0387 53.0461 26.241 54.0976 27.5725 54.9552C30.152 56.619 33.1351 57.4984 36.1995 57.4984C45.1392 57.4984 52.4122 50.0525 52.4122 40.9003C52.4122 31.7481 45.1393 24.3016 36.1995 24.3016V24.3015Z"/>
</mask>
<path d="M36.1995 58.1C33.0241 58.1 29.9327 57.1885 27.2595 55.4642C25.8799 54.5757 24.6341 53.4862 23.5568 52.2261C20.8761 49.0929 19.3999 45.0707 19.3999 40.9003C19.3999 36.3059 21.1474 31.9865 24.3204 28.7378C27.4935 25.4891 31.7123 23.7 36.1996 23.7C40.687 23.7 44.9061 25.4891 48.0792 28.7378C51.2524 31.9865 52.9999 36.3058 52.9999 40.9003C52.9999 45.4947 51.2524 49.8137 48.0792 53.0622C44.9061 56.3109 40.6871 58.1 36.1996 58.1H36.1995ZM36.1995 24.3015C27.2602 24.3015 19.9874 31.7476 19.9874 40.9003C19.9874 44.9248 21.412 48.8063 23.9988 51.8298C25.0387 53.0461 26.241 54.0976 27.5725 54.9552C30.152 56.619 33.1351 57.4984 36.1995 57.4984C45.1392 57.4984 52.4122 50.0525 52.4122 40.9003C52.4122 31.7481 45.1393 24.3016 36.1995 24.3016V24.3015Z" fill="#FF450D"/>
<path d="M27.2595 55.4642L27.8015 54.6238L27.801 54.6235L27.2595 55.4642ZM23.5568 52.2261L24.3168 51.5762L24.3166 51.576L23.5568 52.2261ZM24.3204 28.7378L23.6051 28.039L23.605 28.039L24.3204 28.7378ZM48.0792 53.0622L47.3639 52.3634L47.3639 52.3635L48.0792 53.0622ZM36.1995 24.3015H37.1995V23.3015H36.1995V24.3015ZM23.9988 51.8298L24.7589 51.18L24.7587 51.1797L23.9988 51.8298ZM27.5725 54.9552L28.1146 54.1148L28.114 54.1145L27.5725 54.9552ZM36.1995 24.3016H35.1995V25.3016H36.1995V24.3016ZM36.1995 57.1C33.2168 57.1 30.3135 56.2441 27.8015 54.6238L26.7174 56.3046C29.5519 58.1328 32.8315 59.1 36.1995 59.1V57.1ZM27.801 54.6235C26.504 53.7881 25.3316 52.7632 24.3168 51.5762L22.7967 52.8759C23.9366 54.2092 25.2558 55.3632 26.718 56.3049L27.801 54.6235ZM24.3166 51.576C21.7929 48.6262 20.3999 44.8352 20.3999 40.9003H18.3999C18.3999 45.3061 19.9594 49.5596 22.7969 52.8762L24.3166 51.576ZM20.3999 40.9003C20.3999 36.5636 22.0476 32.496 25.0358 29.4365L23.605 28.039C20.2472 31.477 18.3999 36.0482 18.3999 40.9003H20.3999ZM25.0358 29.4365C28.0233 26.3778 31.9852 24.7 36.1996 24.7V22.7C31.4393 22.7 26.9638 24.6003 23.6051 28.039L25.0358 29.4365ZM36.1996 24.7C40.4141 24.7 44.3763 26.3779 47.3639 29.4365L48.7946 28.039C45.4358 24.6003 40.9599 22.7 36.1996 22.7V24.7ZM47.3639 29.4365C50.3522 32.496 51.9999 36.5635 51.9999 40.9003H53.9999C53.9999 36.0481 52.1526 31.477 48.7946 28.039L47.3639 29.4365ZM51.9999 40.9003C51.9999 45.237 50.3522 49.3042 47.3639 52.3634L48.7946 53.761C52.1526 50.3232 53.9999 45.7524 53.9999 40.9003H51.9999ZM47.3639 52.3635C44.3763 55.4221 40.4143 57.1 36.1996 57.1V59.1C40.96 59.1 45.4358 57.1997 48.7946 53.7609L47.3639 52.3635ZM36.1996 57.1H36.1995V59.1H36.1996V57.1ZM36.1995 23.3015C26.6858 23.3015 18.9874 31.2177 18.9874 40.9003H20.9874C20.9874 32.2776 27.8346 25.3015 36.1995 25.3015V23.3015ZM18.9874 40.9003C18.9874 45.1602 20.4953 49.273 23.239 52.4799L24.7587 51.1797C22.3288 48.3396 20.9874 44.6894 20.9874 40.9003H18.9874ZM23.2387 52.4796C24.3411 53.769 25.6169 54.8851 27.031 55.7959L28.114 54.1145C26.8651 53.3101 25.7362 52.3231 24.7589 51.18L23.2387 52.4796ZM27.0305 55.7955C29.7712 57.5634 32.9425 58.4984 36.1995 58.4984V56.4984C33.3277 56.4984 30.5328 55.6747 28.1146 54.1148L27.0305 55.7955ZM36.1995 58.4984C45.7135 58.4984 53.4122 50.5825 53.4122 40.9003H51.4122C51.4122 49.5225 44.5649 56.4984 36.1995 56.4984V58.4984ZM53.4122 40.9003C53.4122 31.2182 45.7137 23.3016 36.1995 23.3016V25.3016C44.5649 25.3016 51.4122 32.2781 51.4122 40.9003H53.4122ZM37.1995 24.3016V24.3015H35.1995V24.3016H37.1995Z" fill="black" mask="url(#path-19-inside-8_82_273)"/>
<path d="M22.9906 54.8682C23.8677 55.7806 24.8337 56.6053 25.8744 57.3279L4.85868 84.0823C4.85865 84.0824 4.85862 84.0824 4.85858 84.0825C4.21445 84.9018 3.02345 85.0396 2.21318 84.3917C1.40007 83.741 1.26055 82.5313 1.90677 81.7087L1.51358 81.3998L1.90677 81.7087L22.9906 54.8682Z" fill="white" stroke="black"/>
<mask id="path-22-inside-9_82_273" fill="white">
<path d="M2.88189 85.3C2.29725 85.3 1.70876 85.1092 1.21616 84.7158C0.0555151 83.7882 -0.139998 82.082 0.780134 80.9123L22.5004 53.3L22.7332 53.5574C23.7964 54.7323 25.0059 55.7648 26.3278 56.6262L26.5997 56.8034L4.98958 84.2762C4.46001 84.9491 3.67445 85.3 2.88182 85.3L2.88189 85.3ZM22.5338 54.2115L1.24079 81.2804C0.522045 82.1941 0.67477 83.5268 1.58131 84.2513C2.48779 84.9753 3.81018 84.8213 4.52899 83.9081L25.7385 56.9446C24.5746 56.1572 23.4988 55.2397 22.5337 54.2115H22.5338Z"/>
</mask>
<path d="M2.88189 85.3C2.29725 85.3 1.70876 85.1092 1.21616 84.7158C0.0555151 83.7882 -0.139998 82.082 0.780134 80.9123L22.5004 53.3L22.7332 53.5574C23.7964 54.7323 25.0059 55.7648 26.3278 56.6262L26.5997 56.8034L4.98958 84.2762C4.46001 84.9491 3.67445 85.3 2.88182 85.3L2.88189 85.3ZM22.5338 54.2115L1.24079 81.2804C0.522045 82.1941 0.67477 83.5268 1.58131 84.2513C2.48779 84.9753 3.81018 84.8213 4.52899 83.9081L25.7385 56.9446C24.5746 56.1572 23.4988 55.2397 22.5337 54.2115H22.5338Z" fill="#FF450D"/>
<path d="M2.88189 85.3V86.3H5.28269L3.59178 84.5957L2.88189 85.3ZM1.21616 84.7158L0.591837 85.4969L0.592129 85.4972L1.21616 84.7158ZM0.780134 80.9123L1.5661 81.5305L1.56611 81.5305L0.780134 80.9123ZM22.5004 53.3L23.2418 52.629L22.4468 51.7507L21.7144 52.6818L22.5004 53.3ZM22.7332 53.5574L23.4747 52.8864L23.4747 52.8863L22.7332 53.5574ZM26.3278 56.6262L26.8738 55.7884L26.8738 55.7884L26.3278 56.6262ZM26.5997 56.8034L27.3857 57.4217L28.0615 56.5624L27.1457 55.9656L26.5997 56.8034ZM4.98958 84.2762L5.77537 84.8947L5.77556 84.8945L4.98958 84.2762ZM2.88182 85.3V84.3H0.481023L2.17193 86.0043L2.88182 85.3ZM22.5338 54.2115L23.3197 54.8297L24.5927 53.2115H22.5338V54.2115ZM1.24079 81.2804L2.02675 81.8987L2.02676 81.8987L1.24079 81.2804ZM1.58131 84.2513L0.957003 85.0325L0.957287 85.0327L1.58131 84.2513ZM4.52899 83.9081L5.31477 84.5266L5.31497 84.5263L4.52899 83.9081ZM25.7385 56.9446L26.5245 57.5628L27.1887 56.7184L26.2988 56.1163L25.7385 56.9446ZM22.5337 54.2115V53.2115H20.2236L21.8045 54.8958L22.5337 54.2115ZM2.88189 84.3C2.51584 84.3 2.14929 84.1812 1.8402 83.9344L0.592129 85.4972C1.26823 86.0371 2.07866 86.3 2.88189 86.3V84.3ZM1.84049 83.9346C1.11019 83.3509 0.984552 82.2698 1.5661 81.5305L-0.00583586 80.294C-1.26455 81.8941 -0.999155 84.2254 0.591837 85.4969L1.84049 83.9346ZM1.56611 81.5305L23.2863 53.9183L21.7144 52.6818L-0.00583972 80.294L1.56611 81.5305ZM21.7589 53.9711L21.9918 54.2284L23.4747 52.8863L23.2418 52.629L21.7589 53.9711ZM21.9918 54.2283C23.1124 55.4668 24.3876 56.5554 25.7818 57.464L26.8738 55.7884C25.6242 54.9741 24.4804 53.9978 23.4747 52.8864L21.9918 54.2283ZM25.7818 57.464L26.0537 57.6412L27.1457 55.9656L26.8738 55.7884L25.7818 57.464ZM25.8137 56.1852L4.2036 83.658L5.77556 84.8945L27.3857 57.4217L25.8137 56.1852ZM4.20379 83.6577C3.87149 84.0799 3.3805 84.3 2.88182 84.3V86.3C3.96839 86.3 5.04853 85.8182 5.77537 84.8947L4.20379 83.6577ZM2.17193 86.0043L2.17199 86.0044L3.59178 84.5957L3.59172 84.5957L2.17193 86.0043ZM21.7478 53.5932L0.454815 80.6622L2.02676 81.8987L23.3197 54.8297L21.7478 53.5932ZM0.45483 80.6622C-0.602497 82.0062 -0.379921 83.9641 0.957003 85.0325L2.20563 83.4702C1.72946 83.0896 1.64659 82.382 2.02675 81.8987L0.45483 80.6622ZM0.957287 85.0327C2.29881 86.1041 4.25372 85.8746 5.31477 84.5266L3.74321 83.2895C3.36664 83.768 2.67678 83.8464 2.20534 83.4699L0.957287 85.0327ZM5.31497 84.5263L26.5245 57.5628L24.9525 56.3263L3.74301 83.2898L5.31497 84.5263ZM26.2988 56.1163C25.1966 55.3706 24.1773 54.5014 23.2628 53.5271L21.8045 54.8958C22.8202 55.978 23.9526 56.9437 25.1781 57.7728L26.2988 56.1163ZM22.5337 55.2115H22.5338V53.2115H22.5337V55.2115Z" fill="black" mask="url(#path-22-inside-9_82_273)"/>
<mask id="path-24-inside-10_82_273" fill="white">
<path d="M22.9571 45.3001L22.6 44.6077L42.0353 34.9701C42.2741 34.8516 42.5596 34.8857 42.7626 35.0566L52.2 43.0036L51.6844 43.5922L42.3138 35.7015L22.9571 45.3001Z"/>
</mask>
<path d="M22.9571 45.3001L22.6 44.6077L42.0353 34.9701C42.2741 34.8516 42.5596 34.8857 42.7626 35.0566L52.2 43.0036L51.6844 43.5922L42.3138 35.7015L22.9571 45.3001Z" fill="#FF450D"/>
<path d="M22.6 44.6077L22.1557 43.7118L21.2455 44.1632L21.7112 45.0661L22.6 44.6077ZM42.0353 34.9701L42.4795 35.866L42.4799 35.8659L42.0353 34.9701ZM42.7626 35.0566L43.4067 34.2917L43.4066 34.2916L42.7626 35.0566ZM52.2 43.0036L52.9522 43.6624L53.624 42.8954L52.8441 42.2386L52.2 43.0036ZM51.6844 43.5922L51.0403 44.3571L51.7905 44.9889L52.4367 44.2511L51.6844 43.5922ZM42.3138 35.7015L42.9579 34.9366L42.4566 34.5144L41.8695 34.8056L42.3138 35.7015ZM23.8459 44.8417L23.4887 44.1493L21.7112 45.0661L22.0684 45.7586L23.8459 44.8417ZM23.0442 45.5036L42.4795 35.866L41.591 34.0742L22.1557 43.7118L23.0442 45.5036ZM42.4799 35.8659C42.3637 35.9236 42.2214 35.9082 42.1185 35.8216L43.4066 34.2916C42.8978 33.8632 42.1845 33.7797 41.5907 34.0744L42.4799 35.8659ZM42.1185 35.8215L51.5559 43.7685L52.8441 42.2386L43.4067 34.2917L42.1185 35.8215ZM51.4477 42.3447L50.9322 42.9334L52.4367 44.2511L52.9522 43.6624L51.4477 42.3447ZM52.3285 42.8273L42.9579 34.9366L41.6697 36.4664L51.0403 44.3571L52.3285 42.8273ZM41.8695 34.8056L22.5129 44.4042L23.4014 46.196L42.758 36.5974L41.8695 34.8056Z" fill="black" mask="url(#path-24-inside-10_82_273)"/>
<mask id="path-26-inside-11_82_273" fill="white">
<path d="M59.7225 50.8997C59.5685 50.8997 59.4142 50.8465 59.2903 50.7391L55.4 47.361L55.9192 46.7529L59.7165 50.0502L76.4392 33.2998L77 33.8691L60.1902 50.7067C60.0622 50.8349 59.8925 50.8998 59.7225 50.8998L59.7225 50.8997Z"/>
</mask>
<path d="M59.7225 50.8997C59.5685 50.8997 59.4142 50.8465 59.2903 50.7391L55.4 47.361L55.9192 46.7529L59.7165 50.0502L76.4392 33.2998L77 33.8691L60.1902 50.7067C60.0622 50.8349 59.8925 50.8998 59.7225 50.8998L59.7225 50.8997Z" fill="#FF450D"/>
<path d="M59.7225 50.8997L60.4536 51.5821L62.0238 49.8997H59.7225V50.8997ZM59.2903 50.7391L58.6347 51.4941L58.6352 51.4946L59.2903 50.7391ZM55.4 47.361L54.6395 46.7117L53.9956 47.4659L54.7444 48.1161L55.4 47.361ZM55.9192 46.7529L56.5749 45.9979L55.8135 45.3368L55.1588 46.1036L55.9192 46.7529ZM59.7165 50.0502L59.0608 50.8053L59.7651 51.4168L60.4242 50.7567L59.7165 50.0502ZM76.4392 33.2998L77.1516 32.598L76.444 31.8797L75.7315 32.5933L76.4392 33.2998ZM77 33.8691L77.7077 34.5756L78.4084 33.8738L77.7124 33.1673L77 33.8691ZM60.1902 50.7067L60.8979 51.4132L60.8979 51.4132L60.1902 50.7067ZM59.7225 50.8998L58.9914 50.2175L57.4212 51.8998H59.7225V50.8998ZM59.7225 49.8997C59.7985 49.8997 59.8796 49.9264 59.9454 49.9835L58.6352 51.4946C58.9489 51.7666 59.3386 51.8997 59.7225 51.8997V49.8997ZM59.946 49.984L56.0557 46.6059L54.7444 48.1161L58.6347 51.4941L59.946 49.984ZM56.1605 48.0104L56.6797 47.4023L55.1588 46.1036L54.6395 46.7117L56.1605 48.0104ZM55.2636 47.508L59.0608 50.8053L60.3721 49.2951L56.5749 45.9979L55.2636 47.508ZM60.4242 50.7567L77.1469 34.0063L75.7315 32.5933L59.0088 49.3437L60.4242 50.7567ZM75.7268 34.0016L76.2876 34.5709L77.7124 33.1673L77.1516 32.598L75.7268 34.0016ZM76.2923 33.1626L59.4825 50.0002L60.8979 51.4132L77.7077 34.5756L76.2923 33.1626ZM59.4825 50.0002C59.5507 49.9319 59.6395 49.8998 59.7225 49.8998V51.8998C60.1456 51.8998 60.5737 51.738 60.8979 51.4132L59.4825 50.0002ZM60.4535 51.5821L60.4536 51.5821L58.9915 50.2174L58.9914 50.2175L60.4535 51.5821Z" fill="black" mask="url(#path-26-inside-11_82_273)"/>
<path d="M72.8359 30.1893L73.2765 30.1651L73.2849 30.4702L73.0997 30.6882L72.7399 30.3825C72.7399 30.3825 72.7399 30.3825 72.7399 30.3824C72.7182 30.364 72.7075 30.3442 72.703 30.3275C72.6985 30.3109 72.6987 30.2929 72.7058 30.2735C72.7195 30.2358 72.7628 30.1933 72.8358 30.1893C72.8359 30.1893 72.8359 30.1893 72.8359 30.1893Z" fill="#FF450D" stroke="black"/>
</svg>
