<svg width="118" height="104" viewBox="0 0 118 104" fill="none" xmlns="http://www.w3.org/2000/svg">
<mask id="path-1-inside-1_82_305" fill="white">
<path d="M109.915 0.800049H8.88503C4.76824 0.800049 1.39996 4.17695 1.39996 8.30428V87.6958C1.39996 91.8232 4.76824 95.2001 8.88503 95.2001H109.915C114.032 95.2001 117.4 91.8232 117.4 87.6958V8.30434C117.4 4.17701 114.032 0.800112 109.915 0.800112L109.915 0.800049ZM113.82 84.4719C113.82 88.5993 110.452 91.9762 106.335 91.9762H11.9183C7.80147 91.9762 4.43319 88.5993 4.43319 84.4719V11.4365C4.43319 7.30916 7.80147 3.93226 11.9183 3.93226H106.335C110.452 3.93226 113.82 7.30916 113.82 11.4365V84.472V84.4719Z"/>
</mask>
<path d="M109.915 0.800049H8.88503C4.76824 0.800049 1.39996 4.17695 1.39996 8.30428V87.6958C1.39996 91.8232 4.76824 95.2001 8.88503 95.2001H109.915C114.032 95.2001 117.4 91.8232 117.4 87.6958V8.30434C117.4 4.17701 114.032 0.800112 109.915 0.800112L109.915 0.800049ZM113.82 84.4719C113.82 88.5993 110.452 91.9762 106.335 91.9762H11.9183C7.80147 91.9762 4.43319 88.5993 4.43319 84.4719V11.4365C4.43319 7.30916 7.80147 3.93226 11.9183 3.93226H106.335C110.452 3.93226 113.82 7.30916 113.82 11.4365V84.472V84.4719Z" fill="white"/>
<path d="M109.915 0.800049L110.628 0.0993559L110.334 -0.199951H109.915V0.800049ZM109.915 0.800112L109.201 1.5008L109.495 1.80011H109.915V0.800112ZM109.915 -0.199951H8.88503V1.80005H109.915V-0.199951ZM8.88503 -0.199951C4.21355 -0.199951 0.399963 3.62708 0.399963 8.30428H2.39996C2.39996 4.72682 5.32294 1.80005 8.88503 1.80005V-0.199951ZM0.399963 8.30428V87.6958H2.39996V8.30428H0.399963ZM0.399963 87.6958C0.399963 92.373 4.21355 96.2001 8.88503 96.2001V94.2001C5.32294 94.2001 2.39996 91.2733 2.39996 87.6958H0.399963ZM8.88503 96.2001H109.915V94.2001H8.88503V96.2001ZM109.915 96.2001C114.586 96.2001 118.4 92.373 118.4 87.6958H116.4C116.4 91.2733 113.477 94.2001 109.915 94.2001V96.2001ZM118.4 87.6958V8.30434H116.4V87.6958H118.4ZM118.4 8.30434C118.4 3.62714 114.586 -0.199888 109.915 -0.199888V1.80011C113.477 1.80011 116.4 4.72689 116.4 8.30434H118.4ZM110.628 0.0994191L110.628 0.0993559L109.201 1.50074L109.201 1.5008L110.628 0.0994191ZM112.82 84.4719C112.82 88.0494 109.897 90.9762 106.335 90.9762V92.9762C111.007 92.9762 114.82 89.1491 114.82 84.4719H112.82ZM106.335 90.9762H11.9183V92.9762H106.335V90.9762ZM11.9183 90.9762C8.35616 90.9762 5.43319 88.0494 5.43319 84.4719H3.43319C3.43319 89.1491 7.24678 92.9762 11.9183 92.9762V90.9762ZM5.43319 84.4719V11.4365H3.43319V84.4719H5.43319ZM5.43319 11.4365C5.43319 7.85903 8.35616 4.93226 11.9183 4.93226V2.93226C7.24678 2.93226 3.43319 6.75929 3.43319 11.4365H5.43319ZM11.9183 4.93226H106.335V2.93226H11.9183V4.93226ZM106.335 4.93226C109.897 4.93226 112.82 7.85903 112.82 11.4365H114.82C114.82 6.75929 111.007 2.93226 106.335 2.93226V4.93226ZM112.82 11.4365V84.472H114.82V11.4365H112.82ZM114.82 84.472V84.4719H112.82V84.472H114.82Z" fill="black" mask="url(#path-1-inside-1_82_305)"/>
<mask id="path-3-inside-2_82_305" fill="white">
<path d="M109.586 95.1994H8.41361C4.10521 95.1994 0.599976 91.6842 0.599976 87.3634V7.83591C0.599976 3.51519 4.10514 0 8.41361 0H109.586C113.895 0 117.4 3.51519 117.4 7.83591V87.3634C117.4 91.6842 113.895 95.1994 109.586 95.1994ZM8.41361 0.637641C4.45574 0.637641 1.2358 3.86679 1.2358 7.83591V87.3634C1.2358 91.3326 4.45574 94.5618 8.41361 94.5618H109.586C113.544 94.5618 116.764 91.3326 116.764 87.3634V7.83591C116.764 3.86672 113.544 0.637641 109.586 0.637641H8.41361ZM106.002 91.9701H11.4511C7.14273 91.9701 3.63756 88.4549 3.63756 84.1341V10.9734C3.63756 6.65264 7.14273 3.13745 11.4511 3.13745H106.002C110.31 3.13745 113.815 6.65264 113.815 10.9734V84.1341C113.815 88.4549 110.31 91.9701 106.002 91.9701ZM11.4511 3.77509C7.49332 3.77509 4.27338 7.00424 4.27338 10.9734V84.1341C4.27338 88.1033 7.49332 91.3324 11.4511 91.3324H106.002C109.959 91.3324 113.179 88.1033 113.179 84.1341V10.9734C113.179 7.00417 109.959 3.77509 106.002 3.77509H11.4511Z"/>
</mask>
<path d="M109.586 95.1994H8.41361C4.10521 95.1994 0.599976 91.6842 0.599976 87.3634V7.83591C0.599976 3.51519 4.10514 0 8.41361 0H109.586C113.895 0 117.4 3.51519 117.4 7.83591V87.3634C117.4 91.6842 113.895 95.1994 109.586 95.1994ZM8.41361 0.637641C4.45574 0.637641 1.2358 3.86679 1.2358 7.83591V87.3634C1.2358 91.3326 4.45574 94.5618 8.41361 94.5618H109.586C113.544 94.5618 116.764 91.3326 116.764 87.3634V7.83591C116.764 3.86672 113.544 0.637641 109.586 0.637641H8.41361ZM106.002 91.9701H11.4511C7.14273 91.9701 3.63756 88.4549 3.63756 84.1341V10.9734C3.63756 6.65264 7.14273 3.13745 11.4511 3.13745H106.002C110.31 3.13745 113.815 6.65264 113.815 10.9734V84.1341C113.815 88.4549 110.31 91.9701 106.002 91.9701ZM11.4511 3.77509C7.49332 3.77509 4.27338 7.00424 4.27338 10.9734V84.1341C4.27338 88.1033 7.49332 91.3324 11.4511 91.3324H106.002C109.959 91.3324 113.179 88.1033 113.179 84.1341V10.9734C113.179 7.00417 109.959 3.77509 106.002 3.77509H11.4511Z" fill="#FF450D"/>
<path d="M109.586 94.1994H8.41361V96.1994H109.586V94.1994ZM8.41361 94.1994C4.66018 94.1994 1.59998 91.1346 1.59998 87.3634H-0.400024C-0.400024 92.2338 3.55024 96.1994 8.41361 96.1994V94.1994ZM1.59998 87.3634V7.83591H-0.400024V87.3634H1.59998ZM1.59998 7.83591C1.59998 4.06479 4.66011 1 8.41361 1V-1C3.55017 -1 -0.400024 2.96559 -0.400024 7.83591H1.59998ZM8.41361 1H109.586V-1H8.41361V1ZM109.586 1C113.34 1 116.4 4.06478 116.4 7.83591H118.4C118.4 2.9656 114.45 -1 109.586 -1V1ZM116.4 7.83591V87.3634H118.4V7.83591H116.4ZM116.4 87.3634C116.4 91.1346 113.34 94.1994 109.586 94.1994V96.1994C114.45 96.1994 118.4 92.2338 118.4 87.3634H116.4ZM8.41361 -0.362359C3.90077 -0.362359 0.235799 3.31719 0.235799 7.83591H2.2358C2.2358 4.41638 5.01071 1.63764 8.41361 1.63764V-0.362359ZM0.235799 7.83591V87.3634H2.2358V7.83591H0.235799ZM0.235799 87.3634C0.235799 91.8822 3.90076 95.5618 8.41361 95.5618V93.5618C5.01071 93.5618 2.2358 90.783 2.2358 87.3634H0.235799ZM8.41361 95.5618H109.586V93.5618H8.41361V95.5618ZM109.586 95.5618C114.099 95.5618 117.764 91.8822 117.764 87.3634H115.764C115.764 90.783 112.989 93.5618 109.586 93.5618V95.5618ZM117.764 87.3634V7.83591H115.764V87.3634H117.764ZM117.764 7.83591C117.764 3.31712 114.099 -0.362359 109.586 -0.362359V1.63764C112.989 1.63764 115.764 4.41632 115.764 7.83591H117.764ZM109.586 -0.362359H8.41361V1.63764H109.586V-0.362359ZM106.002 90.9701H11.4511V92.9701H106.002V90.9701ZM11.4511 90.9701C7.69771 90.9701 4.63756 87.9053 4.63756 84.1341H2.63756C2.63756 89.0045 6.58775 92.9701 11.4511 92.9701V90.9701ZM4.63756 84.1341V10.9734H2.63756V84.1341H4.63756ZM4.63756 10.9734C4.63756 7.20223 7.6977 4.13745 11.4511 4.13745V2.13745C6.58775 2.13745 2.63756 6.10305 2.63756 10.9734H4.63756ZM11.4511 4.13745H106.002V2.13745H11.4511V4.13745ZM106.002 4.13745C109.755 4.13745 112.815 7.20224 112.815 10.9734H114.815C114.815 6.10305 110.865 2.13745 106.002 2.13745V4.13745ZM112.815 10.9734V84.1341H114.815V10.9734H112.815ZM112.815 84.1341C112.815 87.9053 109.755 90.9701 106.002 90.9701V92.9701C110.865 92.9701 114.815 89.0045 114.815 84.1341H112.815ZM11.4511 2.77509C6.93835 2.77509 3.27338 6.45465 3.27338 10.9734H5.27338C5.27338 7.55383 8.0483 4.77509 11.4511 4.77509V2.77509ZM3.27338 10.9734V84.1341H5.27338V10.9734H3.27338ZM3.27338 84.1341C3.27338 88.6529 6.93834 92.3324 11.4511 92.3324V90.3324C8.0483 90.3324 5.27338 87.5537 5.27338 84.1341H3.27338ZM11.4511 92.3324H106.002V90.3324H11.4511V92.3324ZM106.002 92.3324C110.514 92.3324 114.179 88.6529 114.179 84.1341H112.179C112.179 87.5537 109.404 90.3324 106.002 90.3324V92.3324ZM114.179 84.1341V10.9734H112.179V84.1341H114.179ZM114.179 10.9734C114.179 6.45457 110.514 2.77509 106.002 2.77509V4.77509C109.404 4.77509 112.179 7.55377 112.179 10.9734H114.179ZM106.002 2.77509H11.4511V4.77509H106.002V2.77509Z" fill="black" mask="url(#path-3-inside-2_82_305)"/>
<path d="M12.0997 4.49976H106.7C110.566 4.49976 113.7 7.63392 113.7 11.5002V84.4993C113.7 88.3656 110.566 91.4998 106.7 91.4998H12.0997C8.23394 91.4998 5.10004 88.3656 5.10004 84.4993V11.5002C5.10004 7.63392 8.23393 4.49976 12.0997 4.49976Z" fill="white" stroke="black"/>
<mask id="path-6-inside-3_82_305" fill="white">
<path d="M106.371 91.9995H11.6293C7.31223 91.9995 3.79999 88.4856 3.79999 84.1664V11.0329C3.79999 6.71383 7.31223 3.19995 11.6293 3.19995H106.371C110.688 3.19995 114.2 6.71383 114.2 11.0329V84.1665C114.2 88.4857 110.688 91.9996 106.371 91.9996V91.9995ZM11.6293 3.83736C7.66353 3.83736 4.43709 7.0653 4.43709 11.0329V84.1665C4.43709 88.1341 7.66353 91.3622 11.6293 91.3622H106.371C110.336 91.3622 113.563 88.1341 113.563 84.1665V11.0329C113.563 7.06524 110.336 3.83736 106.371 3.83736H11.6293Z"/>
</mask>
<path d="M106.371 91.9995H11.6293C7.31223 91.9995 3.79999 88.4856 3.79999 84.1664V11.0329C3.79999 6.71383 7.31223 3.19995 11.6293 3.19995H106.371C110.688 3.19995 114.2 6.71383 114.2 11.0329V84.1665C114.2 88.4857 110.688 91.9996 106.371 91.9996V91.9995ZM11.6293 3.83736C7.66353 3.83736 4.43709 7.0653 4.43709 11.0329V84.1665C4.43709 88.1341 7.66353 91.3622 11.6293 91.3622H106.371C110.336 91.3622 113.563 88.1341 113.563 84.1665V11.0329C113.563 7.06524 110.336 3.83736 106.371 3.83736H11.6293Z" fill="#FF450D"/>
<path d="M106.371 91.9995H107.371V90.9995H106.371V91.9995ZM106.371 91.9996H105.371V92.9996H106.371V91.9996ZM106.371 90.9995H11.6293V92.9995H106.371V90.9995ZM11.6293 90.9995C7.86496 90.9995 4.79999 87.9338 4.79999 84.1664H2.79999C2.79999 89.0374 6.7595 92.9995 11.6293 92.9995V90.9995ZM4.79999 84.1664V11.0329H2.79999V84.1664H4.79999ZM4.79999 11.0329C4.79999 7.26568 7.86496 4.19995 11.6293 4.19995V2.19995C6.75951 2.19995 2.79999 6.16199 2.79999 11.0329H4.79999ZM11.6293 4.19995H106.371V2.19995H11.6293V4.19995ZM106.371 4.19995C110.135 4.19995 113.2 7.26568 113.2 11.0329H115.2C115.2 6.16199 111.24 2.19995 106.371 2.19995V4.19995ZM113.2 11.0329V84.1665H115.2V11.0329H113.2ZM113.2 84.1665C113.2 87.9338 110.135 90.9996 106.371 90.9996V92.9996C111.24 92.9996 115.2 89.0375 115.2 84.1665H113.2ZM107.371 91.9996V91.9995H105.371V91.9996H107.371ZM11.6293 2.83736C7.11081 2.83736 3.43709 6.51345 3.43709 11.0329H5.43709C5.43709 7.61714 8.21626 4.83736 11.6293 4.83736V2.83736ZM3.43709 11.0329V84.1665H5.43709V11.0329H3.43709ZM3.43709 84.1665C3.43709 88.686 7.11079 92.3622 11.6293 92.3622V90.3622C8.21627 90.3622 5.43709 87.5823 5.43709 84.1665H3.43709ZM11.6293 92.3622H106.371V90.3622H11.6293V92.3622ZM106.371 92.3622C110.889 92.3622 114.563 88.686 114.563 84.1665H112.563C112.563 87.5823 109.784 90.3622 106.371 90.3622V92.3622ZM114.563 84.1665V11.0329H112.563V84.1665H114.563ZM114.563 11.0329C114.563 6.51337 110.889 2.83736 106.371 2.83736V4.83736C109.784 4.83736 112.563 7.6171 112.563 11.0329H114.563ZM106.371 2.83736H11.6293V4.83736H106.371V2.83736Z" fill="black" mask="url(#path-6-inside-3_82_305)"/>
<path d="M12.0997 4.49976H106.7C110.566 4.49976 113.7 7.63392 113.7 11.5002V84.4993C113.7 88.3656 110.566 91.4998 106.7 91.4998H12.0997C8.23394 91.4998 5.10004 88.3656 5.10004 84.4993V11.5002C5.10004 7.63392 8.23393 4.49976 12.0997 4.49976Z" fill="white" stroke="black"/>
<mask id="path-9-inside-4_82_305" fill="white">
<path d="M106.371 91.9995H11.6293C7.31223 91.9995 3.79999 88.4856 3.79999 84.1664V11.0329C3.79999 6.71383 7.31223 3.19995 11.6293 3.19995H106.371C110.688 3.19995 114.2 6.71383 114.2 11.0329V84.1665C114.2 88.4857 110.688 91.9996 106.371 91.9996V91.9995ZM11.6293 3.83736C7.66353 3.83736 4.43709 7.0653 4.43709 11.0329V84.1665C4.43709 88.1341 7.66353 91.3622 11.6293 91.3622H106.371C110.336 91.3622 113.563 88.1341 113.563 84.1665V11.0329C113.563 7.06524 110.336 3.83736 106.371 3.83736H11.6293Z"/>
</mask>
<path d="M106.371 91.9995H11.6293C7.31223 91.9995 3.79999 88.4856 3.79999 84.1664V11.0329C3.79999 6.71383 7.31223 3.19995 11.6293 3.19995H106.371C110.688 3.19995 114.2 6.71383 114.2 11.0329V84.1665C114.2 88.4857 110.688 91.9996 106.371 91.9996V91.9995ZM11.6293 3.83736C7.66353 3.83736 4.43709 7.0653 4.43709 11.0329V84.1665C4.43709 88.1341 7.66353 91.3622 11.6293 91.3622H106.371C110.336 91.3622 113.563 88.1341 113.563 84.1665V11.0329C113.563 7.06524 110.336 3.83736 106.371 3.83736H11.6293Z" fill="#FF450D"/>
<path d="M106.371 91.9995H107.371V90.9995H106.371V91.9995ZM106.371 91.9996H105.371V92.9996H106.371V91.9996ZM106.371 90.9995H11.6293V92.9995H106.371V90.9995ZM11.6293 90.9995C7.86496 90.9995 4.79999 87.9338 4.79999 84.1664H2.79999C2.79999 89.0374 6.7595 92.9995 11.6293 92.9995V90.9995ZM4.79999 84.1664V11.0329H2.79999V84.1664H4.79999ZM4.79999 11.0329C4.79999 7.26568 7.86496 4.19995 11.6293 4.19995V2.19995C6.75951 2.19995 2.79999 6.16199 2.79999 11.0329H4.79999ZM11.6293 4.19995H106.371V2.19995H11.6293V4.19995ZM106.371 4.19995C110.135 4.19995 113.2 7.26568 113.2 11.0329H115.2C115.2 6.16199 111.24 2.19995 106.371 2.19995V4.19995ZM113.2 11.0329V84.1665H115.2V11.0329H113.2ZM113.2 84.1665C113.2 87.9338 110.135 90.9996 106.371 90.9996V92.9996C111.24 92.9996 115.2 89.0375 115.2 84.1665H113.2ZM107.371 91.9996V91.9995H105.371V91.9996H107.371ZM11.6293 2.83736C7.11081 2.83736 3.43709 6.51345 3.43709 11.0329H5.43709C5.43709 7.61714 8.21626 4.83736 11.6293 4.83736V2.83736ZM3.43709 11.0329V84.1665H5.43709V11.0329H3.43709ZM3.43709 84.1665C3.43709 88.686 7.11079 92.3622 11.6293 92.3622V90.3622C8.21627 90.3622 5.43709 87.5823 5.43709 84.1665H3.43709ZM11.6293 92.3622H106.371V90.3622H11.6293V92.3622ZM106.371 92.3622C110.889 92.3622 114.563 88.686 114.563 84.1665H112.563C112.563 87.5823 109.784 90.3622 106.371 90.3622V92.3622ZM114.563 84.1665V11.0329H112.563V84.1665H114.563ZM114.563 11.0329C114.563 6.51337 110.889 2.83736 106.371 2.83736V4.83736C109.784 4.83736 112.563 7.6171 112.563 11.0329H114.563ZM106.371 2.83736H11.6293V4.83736H106.371V2.83736Z" fill="black" mask="url(#path-9-inside-4_82_305)"/>
<path d="M13.2104 12.4998H64.7895C65.3082 12.4998 65.7 12.9023 65.7 13.3641V26.6354C65.7 27.0972 65.3082 27.4998 64.7895 27.4998H13.2104C12.6918 27.4998 12.3 27.0972 12.3 26.6354V13.3641C12.3 12.9023 12.6918 12.4998 13.2104 12.4998Z" fill="white" stroke="black"/>
<mask id="path-12-inside-5_82_305" fill="white">
<path d="M64.4639 27.9995H12.736C11.7788 27.9995 11 27.2402 11 26.307V12.8925C11 11.9592 11.7788 11.2 12.736 11.2H64.464C65.4212 11.2 66.2 11.9592 66.2 12.8925V26.307C66.2 27.2402 65.4212 27.9995 64.464 27.9995H64.4639ZM12.736 11.8268C12.1333 11.8268 11.643 12.3049 11.643 12.8925V26.307C11.643 26.8946 12.1333 27.3726 12.736 27.3726H64.464C65.0667 27.3726 65.557 26.8946 65.557 26.307V12.8925C65.557 12.3049 65.0667 11.8268 64.464 11.8268H12.736Z"/>
</mask>
<path d="M64.4639 27.9995H12.736C11.7788 27.9995 11 27.2402 11 26.307V12.8925C11 11.9592 11.7788 11.2 12.736 11.2H64.464C65.4212 11.2 66.2 11.9592 66.2 12.8925V26.307C66.2 27.2402 65.4212 27.9995 64.464 27.9995H64.4639ZM12.736 11.8268C12.1333 11.8268 11.643 12.3049 11.643 12.8925V26.307C11.643 26.8946 12.1333 27.3726 12.736 27.3726H64.464C65.0667 27.3726 65.557 26.8946 65.557 26.307V12.8925C65.557 12.3049 65.0667 11.8268 64.464 11.8268H12.736Z" fill="#FF450D"/>
<path d="M64.4639 26.9995H12.736V28.9995H64.4639V26.9995ZM12.736 26.9995C12.307 26.9995 12 26.6642 12 26.307H10C10 27.8163 11.2505 28.9995 12.736 28.9995V26.9995ZM12 26.307V12.8925H10V26.307H12ZM12 12.8925C12 12.5353 12.307 12.2 12.736 12.2V10.2C11.2505 10.2 10 11.3832 10 12.8925H12ZM12.736 12.2H64.464V10.2H12.736V12.2ZM64.464 12.2C64.893 12.2 65.2 12.5353 65.2 12.8925H67.2C67.2 11.3832 65.9495 10.2 64.464 10.2V12.2ZM65.2 12.8925V26.307H67.2V12.8925H65.2ZM65.2 26.307C65.2 26.6642 64.893 26.9995 64.464 26.9995V28.9995C65.9495 28.9995 67.2 27.8163 67.2 26.307H65.2ZM64.464 26.9995H64.4639V28.9995H64.464V26.9995ZM12.736 10.8268C11.6051 10.8268 10.643 11.7288 10.643 12.8925H12.643C12.643 12.8839 12.6452 12.8712 12.6616 12.8553C12.6783 12.839 12.7031 12.8268 12.736 12.8268V10.8268ZM10.643 12.8925V26.307H12.643V12.8925H10.643ZM10.643 26.307C10.643 27.4706 11.6051 28.3726 12.736 28.3726V26.3726C12.7031 26.3726 12.6783 26.3604 12.6616 26.3441C12.6452 26.3282 12.643 26.3156 12.643 26.307H10.643ZM12.736 28.3726H64.464V26.3726H12.736V28.3726ZM64.464 28.3726C65.5949 28.3726 66.557 27.4706 66.557 26.307H64.557C64.557 26.3156 64.5548 26.3282 64.5384 26.3441C64.5217 26.3604 64.4969 26.3726 64.464 26.3726V28.3726ZM66.557 26.307V12.8925H64.557V26.307H66.557ZM66.557 12.8925C66.557 11.7288 65.5949 10.8268 64.464 10.8268V12.8268C64.4969 12.8268 64.5217 12.839 64.5384 12.8553C64.5548 12.8712 64.557 12.8839 64.557 12.8925H66.557ZM64.464 10.8268H12.736V12.8268H64.464V10.8268Z" fill="black" mask="url(#path-12-inside-5_82_305)"/>
<path d="M38.1546 34.0999H64.6454C64.7548 34.0999 64.9 34.2051 64.9 34.4072V39.9925C64.9 40.1946 64.7548 40.2999 64.6454 40.2999H38.1546C38.0453 40.2999 37.9 40.1946 37.9 39.9925V34.4072C37.9 34.2051 38.0453 34.0999 38.1546 34.0999Z" fill="white" stroke="black"/>
<mask id="path-15-inside-6_82_305" fill="white">
<path d="M64.3246 40.7995H37.6754C37.0824 40.7995 36.6 40.2782 36.6 39.6374V33.9621C36.6 33.3214 37.0824 32.8 37.6754 32.8H64.3246C64.9176 32.8 65.4 33.3214 65.4 33.9621V39.6374C65.4 40.2782 64.9176 40.7995 64.3246 40.7995ZM37.6754 33.4836C37.4312 33.4836 37.2326 33.6983 37.2326 33.9621V39.6374C37.2326 39.9012 37.4312 40.1159 37.6754 40.1159H64.3246C64.5687 40.1159 64.7674 39.9012 64.7674 39.6374V33.9621C64.7674 33.6983 64.5687 33.4836 64.3246 33.4836H37.6754Z"/>
</mask>
<path d="M64.3246 40.7995H37.6754C37.0824 40.7995 36.6 40.2782 36.6 39.6374V33.9621C36.6 33.3214 37.0824 32.8 37.6754 32.8H64.3246C64.9176 32.8 65.4 33.3214 65.4 33.9621V39.6374C65.4 40.2782 64.9176 40.7995 64.3246 40.7995ZM37.6754 33.4836C37.4312 33.4836 37.2326 33.6983 37.2326 33.9621V39.6374C37.2326 39.9012 37.4312 40.1159 37.6754 40.1159H64.3246C64.5687 40.1159 64.7674 39.9012 64.7674 39.6374V33.9621C64.7674 33.6983 64.5687 33.4836 64.3246 33.4836H37.6754Z" fill="#FF450D"/>
<path d="M64.3246 39.7995H37.6754V41.7995H64.3246V39.7995ZM37.6754 39.7995C37.6748 39.7995 37.6749 39.7994 37.6753 39.7995C37.6757 39.7996 37.6751 39.7995 37.6735 39.7988C37.6701 39.7972 37.6609 39.7921 37.6493 39.7795C37.6253 39.7536 37.6 39.7055 37.6 39.6374H35.6C35.6 40.756 36.4585 41.7995 37.6754 41.7995V39.7995ZM37.6 39.6374V33.9621H35.6V39.6374H37.6ZM37.6 33.9621C37.6 33.894 37.6253 33.8459 37.6493 33.82C37.6609 33.8074 37.6701 33.8023 37.6735 33.8007C37.6751 33.8 37.6757 33.7999 37.6753 33.8C37.6749 33.8001 37.6748 33.8 37.6754 33.8V31.8C36.4585 31.8 35.6 32.8435 35.6 33.9621H37.6ZM37.6754 33.8H64.3246V31.8H37.6754V33.8ZM64.3246 33.8C64.3252 33.8 64.325 33.8001 64.3246 33.8C64.3243 33.7999 64.3249 33.8 64.3265 33.8007C64.3298 33.8023 64.339 33.8074 64.3507 33.82C64.3747 33.8459 64.4 33.894 64.4 33.9621H66.4C66.4 32.8435 65.5415 31.8 64.3246 31.8V33.8ZM64.4 33.9621V39.6374H66.4V33.9621H64.4ZM64.4 39.6374C64.4 39.7055 64.3747 39.7536 64.3507 39.7795C64.339 39.7921 64.3298 39.7972 64.3265 39.7988C64.3249 39.7995 64.3243 39.7996 64.3246 39.7995C64.325 39.7994 64.3252 39.7995 64.3246 39.7995V41.7995C65.5415 41.7995 66.4 40.756 66.4 39.6374H64.4ZM37.6754 32.4836C36.8073 32.4836 36.2326 33.2204 36.2326 33.9621H38.2326C38.2326 34.1761 38.0551 34.4836 37.6754 34.4836V32.4836ZM36.2326 33.9621V39.6374H38.2326V33.9621H36.2326ZM36.2326 39.6374C36.2326 40.3791 36.8073 41.1159 37.6754 41.1159V39.1159C38.0551 39.1159 38.2326 39.4234 38.2326 39.6374H36.2326ZM37.6754 41.1159H64.3246V39.1159H37.6754V41.1159ZM64.3246 41.1159C65.1925 41.1159 65.7674 40.3792 65.7674 39.6374H63.7674C63.7674 39.4233 63.9449 39.1159 64.3246 39.1159V41.1159ZM65.7674 39.6374V33.9621H63.7674V39.6374H65.7674ZM65.7674 33.9621C65.7674 33.2203 65.1925 32.4836 64.3246 32.4836V34.4836C63.9449 34.4836 63.7674 34.1762 63.7674 33.9621H65.7674ZM64.3246 32.4836H37.6754V34.4836H64.3246V32.4836Z" fill="black" mask="url(#path-15-inside-6_82_305)"/>
<path d="M75.2999 95.7V102.942C75.2999 103.015 75.2552 103.142 75.0593 103.275C74.8673 103.404 74.5748 103.5 74.23 103.5H40.5699C40.225 103.5 39.9326 103.404 39.7406 103.275C39.5447 103.143 39.4999 103.015 39.4999 102.942V95.7H75.2999Z" fill="white" stroke="black"/>
<mask id="path-18-inside-7_82_305" fill="white">
<path d="M73.904 104H40.096C39.0328 104 38.2 103.383 38.2 102.595V94.3999H75.7999V102.595C75.7999 103.383 74.9671 104 73.904 104ZM38.8383 95.0588V102.595C38.8383 102.948 39.3548 103.341 40.096 103.341H73.904C74.6451 103.341 75.1616 102.948 75.1616 102.595V95.0588H38.8383H38.8383Z"/>
</mask>
<path d="M73.904 104H40.096C39.0328 104 38.2 103.383 38.2 102.595V94.3999H75.7999V102.595C75.7999 103.383 74.9671 104 73.904 104ZM38.8383 95.0588V102.595C38.8383 102.948 39.3548 103.341 40.096 103.341H73.904C74.6451 103.341 75.1616 102.948 75.1616 102.595V95.0588H38.8383H38.8383Z" fill="#FF450D"/>
<path d="M38.2 94.3999V93.3999H37.2V94.3999H38.2ZM75.7999 94.3999H76.7999V93.3999H75.7999V94.3999ZM38.8383 95.0588V94.0588H37.8383V95.0588H38.8383ZM75.1616 95.0588H76.1616V94.0588H75.1616V95.0588ZM73.904 103H40.096V105H73.904V103ZM40.096 103C39.7501 103 39.4917 102.898 39.3445 102.789C39.2015 102.683 39.2 102.608 39.2 102.595H37.2C37.2 103.37 37.6149 103.997 38.154 104.396C38.6891 104.793 39.3787 105 40.096 105V103ZM39.2 102.595V94.3999H37.2V102.595H39.2ZM38.2 95.3999H75.7999V93.3999H38.2V95.3999ZM74.7999 94.3999V102.595H76.7999V94.3999H74.7999ZM74.7999 102.595C74.7999 102.608 74.7984 102.683 74.6554 102.789C74.5082 102.898 74.2499 103 73.904 103V105C74.6213 105 75.3109 104.793 75.8459 104.396C76.3851 103.997 76.7999 103.37 76.7999 102.595H74.7999ZM37.8383 95.0588V102.595H39.8383V95.0588H37.8383ZM37.8383 102.595C37.8383 103.258 38.2902 103.711 38.6491 103.942C39.0487 104.198 39.5548 104.341 40.096 104.341V102.341C39.896 102.341 39.7732 102.287 39.7293 102.259C39.7072 102.244 39.7234 102.249 39.752 102.29C39.7804 102.331 39.8383 102.436 39.8383 102.595H37.8383ZM40.096 104.341H73.904V102.341H40.096V104.341ZM73.904 104.341C74.4452 104.341 74.9512 104.198 75.3509 103.942C75.7097 103.711 76.1616 103.258 76.1616 102.595H74.1616C74.1616 102.435 74.2195 102.331 74.2479 102.29C74.2765 102.249 74.2927 102.244 74.2706 102.259C74.2267 102.287 74.1039 102.341 73.904 102.341V104.341ZM76.1616 102.595V95.0588H74.1616V102.595H76.1616ZM75.1616 94.0588H38.8383V96.0588H75.1616V94.0588ZM38.8383 94.0588H38.8383V96.0588H38.8383V94.0588Z" fill="black" mask="url(#path-18-inside-7_82_305)"/>
<path d="M12.5565 34.0999H31.0435C31.155 34.0999 31.3 34.2063 31.3 34.4072V39.9925C31.3 40.1934 31.155 40.2999 31.0435 40.2999H12.5565C12.445 40.2999 12.3 40.1934 12.3 39.9925V34.4072C12.3 34.2063 12.445 34.0999 12.5565 34.0999Z" fill="white" stroke="black"/>
<mask id="path-21-inside-8_82_305" fill="white">
<path d="M30.7194 40.7995H12.0806C11.4847 40.7995 11 40.2782 11 39.6374V33.9622C11 33.3214 11.4847 32.8 12.0806 32.8H30.7194C31.3153 32.8 31.8 33.3214 31.8 33.9622V39.6374C31.8 40.2782 31.3153 40.7995 30.7194 40.7995ZM12.0806 33.4836C11.8352 33.4836 11.6356 33.6983 11.6356 33.9622V39.6374C11.6356 39.9013 11.8352 40.1159 12.0806 40.1159H30.7194C30.9648 40.1159 31.1644 39.9013 31.1644 39.6374V33.9622C31.1644 33.6983 30.9648 33.4836 30.7194 33.4836H12.0806Z"/>
</mask>
<path d="M30.7194 40.7995H12.0806C11.4847 40.7995 11 40.2782 11 39.6374V33.9622C11 33.3214 11.4847 32.8 12.0806 32.8H30.7194C31.3153 32.8 31.8 33.3214 31.8 33.9622V39.6374C31.8 40.2782 31.3153 40.7995 30.7194 40.7995ZM12.0806 33.4836C11.8352 33.4836 11.6356 33.6983 11.6356 33.9622V39.6374C11.6356 39.9013 11.8352 40.1159 12.0806 40.1159H30.7194C30.9648 40.1159 31.1644 39.9013 31.1644 39.6374V33.9622C31.1644 33.6983 30.9648 33.4836 30.7194 33.4836H12.0806Z" fill="#FF450D"/>
<path d="M30.7194 39.7995H12.0806V41.7995H30.7194V39.7995ZM12.0806 39.7995C12.0792 39.7995 12.0783 39.7996 12.075 39.7981C12.0707 39.7961 12.0611 39.7906 12.0492 39.7778C12.0248 39.7516 12 39.7041 12 39.6374H10C10 40.7607 10.8652 41.7995 12.0806 41.7995V39.7995ZM12 39.6374V33.9622H10V39.6374H12ZM12 33.9622C12 33.8955 12.0248 33.8479 12.0492 33.8217C12.0611 33.809 12.0707 33.8034 12.075 33.8015C12.0783 33.8 12.0792 33.8 12.0806 33.8V31.8C10.8652 31.8 10 32.8388 10 33.9622H12ZM12.0806 33.8H30.7194V31.8H12.0806V33.8ZM30.7194 33.8C30.7208 33.8 30.7217 33.8 30.725 33.8015C30.7293 33.8034 30.7389 33.809 30.7508 33.8217C30.7752 33.8479 30.8 33.8955 30.8 33.9622H32.8C32.8 32.8388 31.9348 31.8 30.7194 31.8V33.8ZM30.8 33.9622V39.6374H32.8V33.9622H30.8ZM30.8 39.6374C30.8 39.7041 30.7752 39.7516 30.7508 39.7778C30.7389 39.7906 30.7293 39.7961 30.725 39.7981C30.7217 39.7996 30.7208 39.7995 30.7194 39.7995V41.7995C31.9348 41.7995 32.8 40.7607 32.8 39.6374H30.8ZM12.0806 32.4836C11.2156 32.4836 10.6356 33.2158 10.6356 33.9622H12.6356C12.6356 34.1808 12.4548 34.4836 12.0806 34.4836V32.4836ZM10.6356 33.9622V39.6374H12.6356V33.9622H10.6356ZM10.6356 39.6374C10.6356 40.3838 11.2156 41.1159 12.0806 41.1159V39.1159C12.4548 39.1159 12.6356 39.4188 12.6356 39.6374H10.6356ZM12.0806 41.1159H30.7194V39.1159H12.0806V41.1159ZM30.7194 41.1159C31.5844 41.1159 32.1644 40.3838 32.1644 39.6374H30.1644C30.1644 39.4188 30.3452 39.1159 30.7194 39.1159V41.1159ZM32.1644 39.6374V33.9622H30.1644V39.6374H32.1644ZM32.1644 33.9622C32.1644 33.2158 31.5844 32.4836 30.7194 32.4836V34.4836C30.3452 34.4836 30.1644 34.1808 30.1644 33.9622H32.1644ZM30.7194 32.4836H12.0806V34.4836H30.7194V32.4836Z" fill="black" mask="url(#path-21-inside-8_82_305)"/>
<path d="M25.5872 22.6636H25.5271C25.4381 23.014 25.249 23.3204 24.9538 23.5634L25.5872 22.6636ZM25.5872 22.6636V22.1636M25.5872 22.6636V22.1636M25.5872 22.1636C25.5872 21.6671 25.4033 21.2316 25.0449 20.8886L24.7314 21.2162M25.5872 22.1636L24.7314 21.2162M24.7314 21.2162L25.0449 20.8886C24.7046 20.5629 24.1827 20.3104 23.5462 20.1026L23.5462 20.1024M24.7314 21.2162L23.5462 20.1024M23.5462 20.1024L23.5342 20.0988M23.5462 20.1024L23.5342 20.0988M23.5342 20.0988C22.7202 19.8554 22.1915 19.5553 21.8854 19.2339C21.5935 18.9273 21.4368 18.5342 21.4368 18.0136C21.4368 17.4757 21.5931 17.0748 21.8777 16.7681L21.8778 16.768M23.5342 20.0988L21.8778 16.768M21.8778 16.768C22.0031 16.633 22.1515 16.5181 22.327 16.4258C22.2406 16.4816 22.1589 16.5457 22.0826 16.6188L22.0826 16.6188C21.7092 16.9767 21.5496 17.4577 21.5496 17.9925C21.5496 18.5169 21.7298 18.9797 22.1165 19.3251M21.8778 16.768L22.1165 19.3251M22.1165 19.3251C22.4621 19.6338 22.9815 19.8763 23.6151 20.0782L22.1165 19.3251ZM24.9984 16.7902C24.8174 16.5698 24.6038 16.4044 24.3638 16.2927C24.7046 16.406 24.9678 16.5918 25.1705 16.8425C25.3827 17.1049 25.5315 17.4599 25.5918 17.9322H25.4799C25.4161 17.4997 25.2625 17.112 24.9985 16.7903L24.9984 16.7902ZM25.2369 23.4005C25.0551 23.5813 24.8211 23.7278 24.5235 23.8306L25.5134 21.2931C25.6319 21.5196 25.7 21.8008 25.7 22.1517C25.7 22.7054 25.5346 23.1045 25.2369 23.4005ZM21.7971 23.459C21.9393 23.6022 22.0988 23.7167 22.2728 23.8054C22.0003 23.6972 21.7792 23.5441 21.6003 23.3523L21.2346 23.6932L21.6003 23.3523C21.3672 23.1022 21.206 22.7745 21.1373 22.3452H21.2521C21.3239 22.7754 21.4967 23.1566 21.7971 23.459ZM23.6151 20.0782C24.2026 20.2655 24.6294 20.462 24.9167 20.6578L23.6151 20.0782ZM24.9168 20.6579C25.2042 20.8539 25.3954 21.0676 25.5134 21.293L24.9168 20.6579Z" fill="#FF450D" stroke="black"/>
<path d="M23.7856 63.6278L29.8192 59.2161L30.1019 59.0094L30.3927 59.2044L55.8132 76.2451L55.8134 76.2453C55.8662 76.2807 55.9262 76.2986 55.9875 76.2998H55.9939C56.0952 76.2998 56.192 76.2546 56.2549 76.1736L88.699 34.3935L88.5819 34.3022L56.3213 75.8461L56.0353 76.2144L55.648 75.9548L30.2889 58.9552C30.2889 58.9552 30.2889 58.9552 30.2889 58.9552C30.1757 58.8794 30.0234 58.8824 29.913 58.9628L23.7856 63.6278ZM23.7856 63.6278L23.6979 63.5073L29.9128 58.963L23.7856 63.6278Z" fill="#FF450D" stroke="black"/>
<path d="M96.5798 38.036L94.1789 26.3731C94.1268 26.1198 93.9792 25.902 93.7632 25.7598L96.5798 38.036ZM96.5798 38.036C96.6591 38.4208 96.5001 38.8119 96.1748 39.0324L96.5798 38.036ZM81.3108 29.3601L81.3107 29.3601C81.1938 29.2831 81.1202 29.1619 81.1035 29.0287L81.7931 29.4828L95.071 38.2274L95.7604 38.6815C95.7182 38.6937 95.6749 38.6997 95.6316 38.6997H95.6207C95.5356 38.6977 95.4504 38.6723 95.3742 38.6221C95.3742 38.6221 95.3742 38.6221 95.3742 38.6221L81.3108 29.3601ZM81.1585 28.742C81.2233 28.6245 81.3366 28.539 81.4738 28.5108C81.4738 28.5108 81.4738 28.5107 81.4738 28.5107L93.1364 26.1098L93.0356 25.6202L93.1364 26.1098C93.2597 26.0844 93.3829 26.108 93.4881 26.1773L93.4882 26.1774C93.5934 26.2467 93.6638 26.3505 93.6892 26.4739L93.6892 26.4739L96.0901 38.1368L96.0901 38.1368C96.1183 38.2739 96.0846 38.4118 96.0022 38.5177L95.8357 37.709L93.569 26.6976L93.4681 26.2079L92.9784 26.3087L81.9673 28.5755L81.1585 28.742Z" fill="#FF450D" stroke="black"/>
</svg>
