<svg width="104" height="104" viewBox="0 0 104 104" fill="none" xmlns="http://www.w3.org/2000/svg">
<path d="M81.272 36.8493C81.272 36.9919 81.1563 37.1 81.0305 37.1H38.0554C37.9296 37.1 37.814 36.9919 37.814 36.8493V1.30005H81.0305C81.1563 1.30005 81.272 1.40815 81.272 1.55077V36.8493Z" fill="white" stroke="black"/>
<mask id="path-2-inside-1_82_231" fill="white">
<path d="M80.6582 37.6H37.6335C37.0195 37.6 36.52 37.0942 36.52 36.4724V0.751706C36.52 0.337234 36.853 0 37.2623 0H80.6582C81.2721 0 81.7716 0.505804 81.7716 1.12756V36.4724C81.7716 37.0942 81.2721 37.6 80.6582 37.6ZM37.2623 0.751706V36.4724C37.2623 36.6797 37.4288 36.8482 37.6335 36.8482H80.6582C80.8629 36.8482 81.0293 36.6797 81.0293 36.4724V1.12756C81.0293 0.920276 80.8629 0.751706 80.6582 0.751706H37.2623Z"/>
</mask>
<path d="M80.6582 37.6H37.6335C37.0195 37.6 36.52 37.0942 36.52 36.4724V0.751706C36.52 0.337234 36.853 0 37.2623 0H80.6582C81.2721 0 81.7716 0.505804 81.7716 1.12756V36.4724C81.7716 37.0942 81.2721 37.6 80.6582 37.6ZM37.2623 0.751706V36.4724C37.2623 36.6797 37.4288 36.8482 37.6335 36.8482H80.6582C80.8629 36.8482 81.0293 36.6797 81.0293 36.4724V1.12756C81.0293 0.920276 80.8629 0.751706 80.6582 0.751706H37.2623Z" fill="#FF450D"/>
<path d="M37.2623 0.751706V-0.248294H36.2623V0.751706H37.2623ZM80.6582 36.6H37.6335V38.6H80.6582V36.6ZM37.6335 36.6C37.5836 36.6 37.52 36.5537 37.52 36.4724H35.52C35.52 37.6345 36.4554 38.6 37.6335 38.6V36.6ZM37.52 36.4724V0.751706H35.52V36.4724H37.52ZM37.52 0.751706C37.52 0.877633 37.4171 1 37.2623 1V-1C36.2889 -1 35.52 -0.203165 35.52 0.751706H37.52ZM37.2623 1H80.6582V-1H37.2623V1ZM80.6582 1C80.7081 1 80.7716 1.0462 80.7716 1.12756H82.7716C82.7716 -0.0345951 81.8362 -1 80.6582 -1V1ZM80.7716 1.12756V36.4724H82.7716V1.12756H80.7716ZM80.7716 36.4724C80.7716 36.5537 80.7081 36.6 80.6582 36.6V38.6C81.8362 38.6 82.7716 37.6345 82.7716 36.4724H80.7716ZM36.2623 0.751706V36.4724H38.2623V0.751706H36.2623ZM36.2623 36.4724C36.2623 37.2201 36.8647 37.8482 37.6335 37.8482V35.8482C37.9929 35.8482 38.2623 36.1393 38.2623 36.4724H36.2623ZM37.6335 37.8482H80.6582V35.8482H37.6335V37.8482ZM80.6582 37.8482C81.4269 37.8482 82.0293 37.2201 82.0293 36.4724H80.0293C80.0293 36.1393 80.2988 35.8482 80.6582 35.8482V37.8482ZM82.0293 36.4724V1.12756H80.0293V36.4724H82.0293ZM82.0293 1.12756C82.0293 0.379877 81.4269 -0.248294 80.6582 -0.248294V1.75171C80.2988 1.75171 80.0293 1.46068 80.0293 1.12756H82.0293ZM80.6582 -0.248294H37.2623V1.75171H80.6582V-0.248294Z" fill="black" mask="url(#path-2-inside-1_82_231)"/>
<mask id="path-4-inside-2_82_231" fill="white">
<path d="M77.8461 34.4H41.2392C40.8256 34.4 40.4891 34.0626 40.4891 33.6478V10.1844C40.4891 9.97757 40.5755 9.78304 40.726 9.65047C40.8763 9.51789 41.0798 9.45725 41.2845 9.48405C41.2852 9.48405 41.4275 9.50173 41.6702 9.50173C44.0323 9.50173 45.954 7.57492 45.954 5.20659C45.954 4.9564 45.934 4.79975 45.9338 4.79825C45.9062 4.59394 45.9659 4.38944 46.0978 4.23816C46.2296 4.08688 46.4238 4 46.6303 4H72.3652C72.5718 4 72.7659 4.08678 72.8978 4.23816C73.0297 4.38954 73.0894 4.59403 73.0617 4.79919C73.0617 4.79975 73.0417 4.9563 73.0417 5.20659C73.0417 7.57492 74.9633 9.50173 77.3253 9.50173C77.5938 9.50173 77.7895 9.47427 77.7957 9.47342C78 9.44334 78.2053 9.50116 78.357 9.6327C78.5089 9.76414 78.596 9.95886 78.596 10.1668V33.6478C78.596 34.0626 78.2595 34.4 77.846 34.4H77.8461ZM41.2392 10.2356V33.6478H77.8461V10.2251C77.7545 10.2358 77.5635 10.2539 77.3254 10.2539C74.5498 10.2539 72.2917 7.98966 72.2917 5.20659C72.2917 4.99119 72.3046 4.83078 72.3124 4.75218H46.6835C46.6913 4.83088 46.7042 4.99128 46.7042 5.20659C46.7042 7.98975 44.446 10.2539 41.6704 10.2539C41.4612 10.2539 41.3131 10.2428 41.2393 10.2356H41.2392Z"/>
</mask>
<path d="M77.8461 34.4H41.2392C40.8256 34.4 40.4891 34.0626 40.4891 33.6478V10.1844C40.4891 9.97757 40.5755 9.78304 40.726 9.65047C40.8763 9.51789 41.0798 9.45725 41.2845 9.48405C41.2852 9.48405 41.4275 9.50173 41.6702 9.50173C44.0323 9.50173 45.954 7.57492 45.954 5.20659C45.954 4.9564 45.934 4.79975 45.9338 4.79825C45.9062 4.59394 45.9659 4.38944 46.0978 4.23816C46.2296 4.08688 46.4238 4 46.6303 4H72.3652C72.5718 4 72.7659 4.08678 72.8978 4.23816C73.0297 4.38954 73.0894 4.59403 73.0617 4.79919C73.0617 4.79975 73.0417 4.9563 73.0417 5.20659C73.0417 7.57492 74.9633 9.50173 77.3253 9.50173C77.5938 9.50173 77.7895 9.47427 77.7957 9.47342C78 9.44334 78.2053 9.50116 78.357 9.6327C78.5089 9.76414 78.596 9.95886 78.596 10.1668V33.6478C78.596 34.0626 78.2595 34.4 77.846 34.4H77.8461ZM41.2392 10.2356V33.6478H77.8461V10.2251C77.7545 10.2358 77.5635 10.2539 77.3254 10.2539C74.5498 10.2539 72.2917 7.98966 72.2917 5.20659C72.2917 4.99119 72.3046 4.83078 72.3124 4.75218H46.6835C46.6913 4.83088 46.7042 4.99128 46.7042 5.20659C46.7042 7.98975 44.446 10.2539 41.6704 10.2539C41.4612 10.2539 41.3131 10.2428 41.2393 10.2356H41.2392Z" fill="#FF450D"/>
<path d="M40.726 9.65047L41.387 10.4008L41.3872 10.4006L40.726 9.65047ZM41.2845 9.48405L41.1548 10.4756L41.2194 10.4841H41.2845V9.48405ZM45.9338 4.79825L46.9262 4.67456L46.9248 4.66455L45.9338 4.79825ZM73.0617 4.79919L72.0707 4.66559L72.0617 4.73209V4.79919H73.0617ZM77.7957 9.47342L77.9293 10.4645L77.9414 10.4627L77.7957 9.47342ZM78.357 9.6327L77.7019 10.3882L77.7026 10.3888L78.357 9.6327ZM41.2392 10.2356V9.23557H40.2392V10.2356H41.2392ZM41.2392 33.6478H40.2392V34.6478H41.2392V33.6478ZM77.8461 33.6478V34.6478H78.8461V33.6478H77.8461ZM77.8461 10.2251H78.8461V9.10244L77.7308 9.23179L77.8461 10.2251ZM72.3124 4.75218L73.3075 4.85187L73.4176 3.75218H72.3124V4.75218ZM46.6835 4.75218V3.75218H45.5784L45.6884 4.85175L46.6835 4.75218ZM41.2393 10.2356L41.3369 9.24035L41.2882 9.23557H41.2393V10.2356ZM77.8461 33.4H41.2392V35.4H77.8461V33.4ZM41.2392 33.4C41.3806 33.4 41.4891 33.513 41.4891 33.6478H39.4891C39.4891 34.6121 40.2706 35.4 41.2392 35.4V33.4ZM41.4891 33.6478V10.1844H39.4891V33.6478H41.4891ZM41.4891 10.1844C41.4891 10.2548 41.4594 10.337 41.387 10.4008L40.0649 8.90013C39.6916 9.22903 39.4891 9.70035 39.4891 10.1844H41.4891ZM41.3872 10.4006C41.3139 10.4652 41.2265 10.485 41.1548 10.4756L41.4143 8.49251C40.9331 8.42953 40.4388 8.57055 40.0647 8.90034L41.3872 10.4006ZM41.2845 10.4841C41.2661 10.4839 41.2376 10.4829 41.2277 10.4824C41.2214 10.4821 41.211 10.4813 41.2067 10.481C41.1985 10.4804 41.192 10.4798 41.1895 10.4795C41.1837 10.479 41.1793 10.4785 41.1781 10.4784C41.1763 10.4782 41.1749 10.478 41.1743 10.4779C41.1735 10.4779 41.173 10.4778 41.1727 10.4778C41.1726 10.4778 41.1713 10.4776 41.1733 10.4778C41.1754 10.4781 41.1787 10.4784 41.1829 10.4789C41.1912 10.4798 41.202 10.4809 41.2152 10.4822C41.2415 10.4848 41.2766 10.4878 41.3198 10.4907C41.4061 10.4964 41.5247 10.5017 41.6702 10.5017V8.50173C41.5731 8.50173 41.4992 8.49818 41.4534 8.49512C41.4306 8.49359 41.4148 8.49219 41.4067 8.49141C41.4027 8.49102 41.4004 8.49077 41.3998 8.49071C41.3996 8.49069 41.3995 8.49068 41.3994 8.49066C41.3993 8.49065 41.3992 8.49064 41.3989 8.49061C41.3988 8.49059 41.3981 8.49051 41.3973 8.49043C41.397 8.4904 41.3944 8.4901 41.3912 8.48976C41.39 8.48963 41.3855 8.48914 41.3797 8.48859C41.3771 8.48834 41.3706 8.48773 41.3624 8.48708C41.3581 8.48676 41.3477 8.48604 41.3414 8.48567C41.3315 8.48515 41.303 8.48422 41.2845 8.48405V10.4841ZM41.6702 10.5017C44.5871 10.5017 46.954 8.12469 46.954 5.20659H44.954C44.954 7.02515 43.4775 8.50173 41.6702 8.50173V10.5017ZM46.954 5.20659C46.954 5.05511 46.9479 4.9296 46.9414 4.83829C46.9382 4.79254 46.9348 4.75512 46.932 4.72702C46.9305 4.71297 46.9293 4.70123 46.9282 4.69194C46.9277 4.68729 46.9272 4.68327 46.9268 4.6799C46.9264 4.67647 46.9259 4.67317 46.9261 4.67456L44.9415 4.92194C44.9417 4.92352 44.9414 4.92162 44.9413 4.92077C44.9412 4.91998 44.9412 4.91972 44.9412 4.91999C44.9413 4.92053 44.9416 4.92324 44.9421 4.92799C44.943 4.9375 44.9447 4.95516 44.9465 4.98003C44.95 5.02997 44.954 5.10788 44.954 5.20659H46.954ZM46.9248 4.66455C46.9344 4.73585 46.9155 4.82194 46.8517 4.8951L45.3438 3.58122C45.0164 3.95695 44.878 4.45203 44.9428 4.93195L46.9248 4.66455ZM46.8517 4.8951C46.7875 4.96884 46.7034 5 46.6303 5V3C46.1442 3 45.6717 3.20492 45.3438 3.58122L46.8517 4.8951ZM46.6303 5H72.3652V3H46.6303V5ZM72.3652 5C72.2924 5 72.2082 4.96887 72.1439 4.89513L73.6517 3.58119C73.3237 3.2047 72.8512 3 72.3652 3V5ZM72.1439 4.89513C72.0797 4.82141 72.0613 4.73511 72.0707 4.66559L74.0528 4.93279C74.1174 4.45296 73.9798 3.95767 73.6517 3.58119L72.1439 4.89513ZM72.0617 4.79919C72.062 4.77667 72.0633 4.74343 72.0639 4.73271C72.0644 4.72643 72.0652 4.71605 72.0655 4.71197C72.0662 4.70425 72.0668 4.69824 72.067 4.69609C72.0676 4.69109 72.068 4.6872 72.0681 4.68633C72.0683 4.68485 72.0684 4.6837 72.0685 4.68323C72.0685 4.68268 72.0686 4.68226 72.0686 4.68211C72.0686 4.68188 72.0687 4.68167 72.0686 4.68209C72.0686 4.68235 72.0685 4.68282 72.0684 4.68338C72.0682 4.68578 72.0678 4.68926 72.0673 4.69365C72.0663 4.70239 72.065 4.71379 72.0636 4.72769C72.0608 4.75543 72.0575 4.79265 72.0542 4.83831C72.0477 4.92944 72.0417 5.05497 72.0417 5.20659H74.0417C74.0417 5.10792 74.0456 5.03004 74.0492 4.98017C74.0509 4.95534 74.0526 4.93768 74.0536 4.92808C74.054 4.92332 74.0544 4.92044 74.0545 4.91953C74.0545 4.9191 74.0545 4.91892 74.0545 4.91884C74.0545 4.91878 74.0546 4.9187 74.0546 4.9185C74.0546 4.91844 74.0547 4.91784 74.0547 4.91729C74.0547 4.91714 74.055 4.91496 74.0553 4.91233C74.0554 4.91138 74.0559 4.90742 74.0564 4.90238C74.0566 4.90021 74.0572 4.89417 74.0579 4.88644C74.0583 4.88235 74.0591 4.87197 74.0595 4.86568C74.0602 4.85495 74.0615 4.82171 74.0617 4.79919H72.0617ZM72.0417 5.20659C72.0417 8.12468 74.4085 10.5017 77.3253 10.5017V8.50173C75.5181 8.50173 74.0417 7.02517 74.0417 5.20659H72.0417ZM77.3253 10.5017C77.4927 10.5017 77.6372 10.4932 77.7423 10.4844C77.7951 10.48 77.8389 10.4754 77.8716 10.4717C77.8879 10.4698 77.9015 10.4681 77.9121 10.4667C77.9226 10.4654 77.9315 10.4642 77.9292 10.4645L77.6622 8.48237C77.6615 8.48247 77.6563 8.48323 77.6431 8.48475C77.6289 8.48637 77.6058 8.48883 77.5754 8.49138C77.514 8.49652 77.4263 8.50173 77.3253 8.50173V10.5017ZM77.9414 10.4627C77.8693 10.4734 77.7792 10.4553 77.7019 10.3882L79.0121 8.87718C78.6314 8.54706 78.1307 8.4133 77.65 8.48409L77.9414 10.4627ZM77.7026 10.3888C77.6262 10.3227 77.596 10.2373 77.596 10.1668H79.596C79.596 9.68045 79.3916 9.20556 79.0114 8.87655L77.7026 10.3888ZM77.596 10.1668V33.6478H79.596V10.1668H77.596ZM77.596 33.6478C77.596 33.513 77.7045 33.4 77.846 33.4V35.4C78.8145 35.4 79.596 34.6121 79.596 33.6478H77.596ZM77.846 35.4H77.8461V33.4H77.846V35.4ZM40.2392 10.2356V33.6478H42.2392V10.2356H40.2392ZM41.2392 34.6478H77.8461V32.6478H41.2392V34.6478ZM78.8461 33.6478V10.2251H76.8461V33.6478H78.8461ZM77.7308 9.23179C77.666 9.23931 77.5149 9.2539 77.3254 9.2539V11.2539C77.6121 11.2539 77.8429 11.2322 77.9613 11.2185L77.7308 9.23179ZM77.3254 9.2539C75.1046 9.2539 73.2917 7.43994 73.2917 5.20659H71.2917C71.2917 8.53937 73.9949 11.2539 77.3254 11.2539V9.2539ZM73.2917 5.20659C73.2917 5.03033 73.3023 4.90373 73.3075 4.85187L71.3174 4.65249C71.3069 4.75784 71.2917 4.95204 71.2917 5.20659H73.2917ZM72.3124 3.75218H46.6835V5.75218H72.3124V3.75218ZM45.6884 4.85175C45.6936 4.90383 45.7042 5.03045 45.7042 5.20659H47.7042C47.7042 4.95211 47.689 4.75792 47.6785 4.65261L45.6884 4.85175ZM45.7042 5.20659C45.7042 7.44 43.8912 9.2539 41.6704 9.2539V11.2539C45.0008 11.2539 47.7042 8.5395 47.7042 5.20659H45.7042ZM41.6704 9.2539C41.4962 9.2539 41.3808 9.24465 41.3369 9.24035L41.1416 11.2308C41.2453 11.241 41.4261 11.2539 41.6704 11.2539V9.2539ZM41.2393 9.23557H41.2392V11.2356H41.2393V9.23557Z" fill="black" mask="url(#path-4-inside-2_82_231)"/>
<path d="M49.9633 11.7H92.9384C93.0659 11.7 93.1798 11.8063 93.1798 11.9507V47.2492C93.1798 47.3936 93.0659 47.5 92.9384 47.5H49.9633C49.8357 47.5 49.7218 47.3936 49.7218 47.2492V11.9507C49.7218 11.8063 49.8357 11.7 49.9633 11.7Z" fill="white" stroke="black"/>
<mask id="path-7-inside-3_82_231" fill="white">
<path d="M92.5662 47.9999H49.5412C48.9272 47.9999 48.4277 47.4941 48.4277 46.8723V11.5275C48.4277 10.9057 48.9272 10.3999 49.5412 10.3999H92.5662C93.1802 10.3999 93.6796 10.9057 93.6796 11.5275V46.8723C93.6796 47.4941 93.1802 47.9999 92.5662 47.9999ZM49.5412 11.1516C49.3365 11.1516 49.1701 11.3202 49.1701 11.5275V46.8723C49.1701 47.0796 49.3365 47.2482 49.5412 47.2482H92.5662C92.7709 47.2482 92.9373 47.0796 92.9373 46.8723V11.5275C92.9373 11.3202 92.7709 11.1516 92.5662 11.1516H49.5412Z"/>
</mask>
<path d="M92.5662 47.9999H49.5412C48.9272 47.9999 48.4277 47.4941 48.4277 46.8723V11.5275C48.4277 10.9057 48.9272 10.3999 49.5412 10.3999H92.5662C93.1802 10.3999 93.6796 10.9057 93.6796 11.5275V46.8723C93.6796 47.4941 93.1802 47.9999 92.5662 47.9999ZM49.5412 11.1516C49.3365 11.1516 49.1701 11.3202 49.1701 11.5275V46.8723C49.1701 47.0796 49.3365 47.2482 49.5412 47.2482H92.5662C92.7709 47.2482 92.9373 47.0796 92.9373 46.8723V11.5275C92.9373 11.3202 92.7709 11.1516 92.5662 11.1516H49.5412Z" fill="#FF450D"/>
<path d="M92.5662 46.9999H49.5412V48.9999H92.5662V46.9999ZM49.5412 46.9999C49.4913 46.9999 49.4277 46.9537 49.4277 46.8723H47.4277C47.4277 48.0345 48.3631 48.9999 49.5412 48.9999V46.9999ZM49.4277 46.8723V11.5275H47.4277V46.8723H49.4277ZM49.4277 11.5275C49.4277 11.4461 49.4913 11.3999 49.5412 11.3999V9.3999C48.3631 9.3999 47.4277 10.3653 47.4277 11.5275H49.4277ZM49.5412 11.3999H92.5662V9.3999H49.5412V11.3999ZM92.5662 11.3999C92.6161 11.3999 92.6796 11.4461 92.6796 11.5275H94.6796C94.6796 10.3653 93.7442 9.3999 92.5662 9.3999V11.3999ZM92.6796 11.5275V46.8723H94.6796V11.5275H92.6796ZM92.6796 46.8723C92.6796 46.9537 92.6161 46.9999 92.5662 46.9999V48.9999C93.7442 48.9999 94.6796 48.0345 94.6796 46.8723H92.6796ZM49.5412 10.1516C48.7724 10.1516 48.1701 10.7798 48.1701 11.5275H50.1701C50.1701 11.8606 49.9006 12.1516 49.5412 12.1516V10.1516ZM48.1701 11.5275V46.8723H50.1701V11.5275H48.1701ZM48.1701 46.8723C48.1701 47.62 48.7724 48.2482 49.5412 48.2482V46.2482C49.9006 46.2482 50.1701 46.5392 50.1701 46.8723H48.1701ZM49.5412 48.2482H92.5662V46.2482H49.5412V48.2482ZM92.5662 48.2482C93.3349 48.2482 93.9373 47.62 93.9373 46.8723H91.9373C91.9373 46.5392 92.2068 46.2482 92.5662 46.2482V48.2482ZM93.9373 46.8723V11.5275H91.9373V46.8723H93.9373ZM93.9373 11.5275C93.9373 10.7798 93.3349 10.1516 92.5662 10.1516V12.1516C92.2068 12.1516 91.9373 11.8606 91.9373 11.5275H93.9373ZM92.5662 10.1516H49.5412V12.1516H92.5662V10.1516Z" fill="black" mask="url(#path-7-inside-3_82_231)"/>
<mask id="path-9-inside-4_82_231" fill="white">
<path d="M89.7543 44.7998H53.1474C52.7338 44.7998 52.3973 44.4624 52.3973 44.0476V20.5841C52.3973 20.3773 52.4837 20.1827 52.6341 20.0502C52.7845 19.9177 52.9879 19.8568 53.1927 19.8838C53.1933 19.8838 53.3356 19.9015 53.5784 19.9015C55.9405 19.9015 57.8622 17.9747 57.8622 15.6063C57.8622 15.3562 57.8421 15.1998 57.8419 15.1983C57.8144 14.9936 57.8742 14.7891 58.0061 14.6379C58.1379 14.4867 58.332 14.3999 58.5385 14.3999H84.2735C84.48 14.3999 84.674 14.4867 84.806 14.6379C84.9378 14.7892 84.9977 14.9937 84.97 15.1989C84.97 15.1998 84.9499 15.3563 84.9499 15.6063C84.9499 17.9747 86.8715 19.9015 89.2336 19.9015C89.502 19.9015 89.6977 19.874 89.704 19.8732C89.9085 19.8431 90.1135 19.901 90.2653 20.0324C90.4171 20.1638 90.5042 20.3585 90.5042 20.5666V44.0477C90.5042 44.4625 90.1677 44.7999 89.7542 44.7999L89.7543 44.7998ZM53.1474 20.6353V44.0476H89.7543V20.6248C89.6626 20.6354 89.4717 20.6536 89.2337 20.6536C86.4581 20.6536 84.1999 18.3893 84.1999 15.6062C84.1999 15.3909 84.2127 15.2305 84.2207 15.1519H58.5916C58.5995 15.2305 58.6124 15.3909 58.6124 15.6062C58.6124 18.3894 56.3542 20.6536 53.5786 20.6536C53.3694 20.6536 53.2212 20.6425 53.1475 20.6353H53.1474Z"/>
</mask>
<path d="M89.7543 44.7998H53.1474C52.7338 44.7998 52.3973 44.4624 52.3973 44.0476V20.5841C52.3973 20.3773 52.4837 20.1827 52.6341 20.0502C52.7845 19.9177 52.9879 19.8568 53.1927 19.8838C53.1933 19.8838 53.3356 19.9015 53.5784 19.9015C55.9405 19.9015 57.8622 17.9747 57.8622 15.6063C57.8622 15.3562 57.8421 15.1998 57.8419 15.1983C57.8144 14.9936 57.8742 14.7891 58.0061 14.6379C58.1379 14.4867 58.332 14.3999 58.5385 14.3999H84.2735C84.48 14.3999 84.674 14.4867 84.806 14.6379C84.9378 14.7892 84.9977 14.9937 84.97 15.1989C84.97 15.1998 84.9499 15.3563 84.9499 15.6063C84.9499 17.9747 86.8715 19.9015 89.2336 19.9015C89.502 19.9015 89.6977 19.874 89.704 19.8732C89.9085 19.8431 90.1135 19.901 90.2653 20.0324C90.4171 20.1638 90.5042 20.3585 90.5042 20.5666V44.0477C90.5042 44.4625 90.1677 44.7999 89.7542 44.7999L89.7543 44.7998ZM53.1474 20.6353V44.0476H89.7543V20.6248C89.6626 20.6354 89.4717 20.6536 89.2337 20.6536C86.4581 20.6536 84.1999 18.3893 84.1999 15.6062C84.1999 15.3909 84.2127 15.2305 84.2207 15.1519H58.5916C58.5995 15.2305 58.6124 15.3909 58.6124 15.6062C58.6124 18.3894 56.3542 20.6536 53.5786 20.6536C53.3694 20.6536 53.2212 20.6425 53.1475 20.6353H53.1474Z" fill="#FF450D"/>
<path d="M89.7543 44.7998L90.4624 45.5059L92.1636 43.7998H89.7543V44.7998ZM52.6341 20.0502L51.9733 19.2997L51.973 19.2999L52.6341 20.0502ZM53.1927 19.8838L53.0621 20.8752L53.1272 20.8838H53.1927V19.8838ZM57.8419 15.1983L58.8343 15.0746L58.833 15.0648L57.8419 15.1983ZM58.0061 14.6379L58.7596 15.2953L58.7598 15.295L58.0061 14.6379ZM84.806 14.6379L85.5599 13.9809L85.5595 13.9804L84.806 14.6379ZM84.97 15.1989L83.979 15.0654L83.97 15.1318V15.1989H84.97ZM89.704 19.8732L89.8375 20.8643L89.8496 20.8625L89.704 19.8732ZM90.2653 20.0324L90.92 19.2764L90.9197 19.2762L90.2653 20.0324ZM89.7542 44.7999L89.0461 44.0938L87.3448 45.7999H89.7542V44.7999ZM53.1474 20.6353V19.6353H52.1474V20.6353H53.1474ZM53.1474 44.0476H52.1474V45.0476H53.1474V44.0476ZM89.7543 44.0476V45.0476H90.7543V44.0476H89.7543ZM89.7543 20.6248H90.7543V19.5022L89.6392 19.6314L89.7543 20.6248ZM84.2207 15.1519L85.2156 15.2528L85.3272 14.1519H84.2207V15.1519ZM58.5916 15.1519V14.1519H57.485L57.5967 15.2528L58.5916 15.1519ZM53.1475 20.6353L53.2439 19.64L53.1958 19.6353H53.1475V20.6353ZM89.7543 43.7998H53.1474V45.7998H89.7543V43.7998ZM53.1474 43.7998C53.2888 43.7998 53.3973 43.9128 53.3973 44.0476H51.3973C51.3973 45.0119 52.1788 45.7998 53.1474 45.7998V43.7998ZM53.3973 44.0476V20.5841H51.3973V44.0476H53.3973ZM53.3973 20.5841C53.3973 20.6543 53.3677 20.7366 53.2951 20.8006L51.973 19.2999C51.5996 19.6288 51.3973 20.1003 51.3973 20.5841H53.3973ZM53.2949 20.8008C53.2226 20.8644 53.1354 20.8849 53.0621 20.8752L53.3233 18.8924C52.8403 18.8287 52.3464 18.9711 51.9733 19.2997L53.2949 20.8008ZM53.1927 20.8838C53.1722 20.8836 53.1414 20.8825 53.1311 20.8819C53.125 20.8815 53.1147 20.8807 53.1106 20.8804C53.1028 20.8798 53.0968 20.8792 53.0945 20.879C53.0893 20.8785 53.0853 20.878 53.0844 20.8779C53.0828 20.8777 53.0816 20.8776 53.0811 20.8775C53.0805 20.8775 53.0801 20.8774 53.0799 20.8774C53.0796 20.8774 53.0793 20.8773 53.0797 20.8774C53.08 20.8774 53.0804 20.8775 53.0809 20.8775C53.0832 20.8778 53.0866 20.8782 53.0908 20.8786C53.0992 20.8796 53.1101 20.8807 53.1233 20.882C53.1496 20.8845 53.1848 20.8875 53.2279 20.8904C53.3142 20.8962 53.4329 20.9015 53.5784 20.9015V18.9015C53.4812 18.9015 53.4073 18.8979 53.3615 18.8949C53.3387 18.8933 53.323 18.8919 53.3149 18.8912C53.3109 18.8908 53.3086 18.8905 53.3082 18.8905C53.3081 18.8905 53.308 18.8905 53.3081 18.8905C53.3081 18.8905 53.3081 18.8905 53.3081 18.8905C53.308 18.8905 53.308 18.8905 53.3078 18.8904C53.3077 18.8904 53.3071 18.8904 53.3065 18.8903C53.3064 18.8903 53.3041 18.89 53.3014 18.8897C53.3003 18.8896 53.2963 18.8892 53.291 18.8886C53.2888 18.8884 53.2827 18.8878 53.2749 18.8872C53.2708 18.8868 53.2605 18.8861 53.2544 18.8857C53.2441 18.8851 53.2133 18.884 53.1927 18.8838V20.8838ZM53.5784 20.9015C56.4953 20.9015 58.8622 18.5244 58.8622 15.6063H56.8622C56.8622 17.4249 55.3857 18.9015 53.5784 18.9015V20.9015ZM58.8622 15.6063C58.8622 15.4548 58.8561 15.3292 58.8496 15.2379C58.8463 15.1921 58.8429 15.1547 58.8401 15.1266C58.8386 15.1125 58.8373 15.1007 58.8363 15.0914C58.8357 15.0868 58.8352 15.0828 58.8348 15.0794C58.8345 15.0763 58.8339 15.0722 58.8342 15.0746L56.8496 15.3219C56.8499 15.3245 56.8496 15.3218 56.8495 15.3213C56.8494 15.3205 56.8494 15.3202 56.8494 15.3205C56.8495 15.321 56.8498 15.3237 56.8503 15.3284C56.8512 15.3379 56.8529 15.3554 56.8546 15.3802C56.8582 15.43 56.8622 15.5077 56.8622 15.6063H58.8622ZM58.833 15.0648C58.8425 15.1355 58.8237 15.2218 58.7596 15.2953L57.2526 13.9804C56.9246 14.3563 56.7862 14.8516 56.8509 15.3317L58.833 15.0648ZM58.7598 15.295C58.6955 15.3688 58.6114 15.3999 58.5385 15.3999V13.3999C58.0526 13.3999 57.5803 13.6046 57.2523 13.9807L58.7598 15.295ZM58.5385 15.3999H84.2735V13.3999H58.5385V15.3999ZM84.2735 15.3999C84.2005 15.3999 84.1165 15.3687 84.0524 15.2953L85.5595 13.9804C85.2316 13.6047 84.7596 13.3999 84.2735 13.3999V15.3999ZM84.052 15.2948C83.9882 15.2216 83.9695 15.1356 83.979 15.0654L85.9611 15.3325C86.0258 14.8518 85.8873 14.3567 85.5599 13.9809L84.052 15.2948ZM83.97 15.1989C83.97 15.1593 83.9726 15.1275 83.9727 15.1263C83.9733 15.117 83.974 15.1098 83.9743 15.1065C83.9749 15.0995 83.9755 15.0941 83.9757 15.0924C83.9761 15.0884 83.9765 15.0853 83.9765 15.085C83.9767 15.084 83.9768 15.0828 83.9766 15.0843C83.9764 15.0861 83.976 15.0894 83.9755 15.0936C83.9746 15.1021 83.9733 15.1134 83.9719 15.1273C83.9691 15.1549 83.9658 15.1922 83.9625 15.2379C83.956 15.3291 83.9499 15.4546 83.9499 15.6063H85.9499C85.9499 15.508 85.9538 15.4303 85.9574 15.3806C85.9592 15.3558 85.9608 15.3381 85.9618 15.3284C85.9623 15.3235 85.9626 15.3205 85.9628 15.3192C85.9628 15.3186 85.9629 15.3182 85.963 15.3174C85.963 15.3173 85.9631 15.3168 85.9631 15.3164C85.9631 15.316 85.9633 15.315 85.9634 15.3139C85.9635 15.3133 85.9639 15.3099 85.9643 15.3057C85.9645 15.3039 85.9651 15.2985 85.9657 15.2914C85.966 15.2881 85.9667 15.2808 85.9674 15.2716C85.9675 15.2704 85.97 15.2386 85.97 15.1989H83.97ZM83.9499 15.6063C83.9499 18.5244 86.3167 20.9015 89.2336 20.9015V18.9015C87.4263 18.9015 85.9499 17.4249 85.9499 15.6063H83.9499ZM89.2336 20.9015C89.401 20.9015 89.5454 20.893 89.6505 20.8842C89.7033 20.8797 89.7471 20.8752 89.7798 20.8714C89.7961 20.8695 89.8097 20.8679 89.8203 20.8665C89.8309 20.8651 89.8396 20.8639 89.8375 20.8642L89.5705 18.8821C89.5699 18.8822 89.5646 18.883 89.5514 18.8845C89.5373 18.8861 89.5141 18.8886 89.4837 18.8911C89.4222 18.8963 89.3345 18.9015 89.2336 18.9015V20.9015ZM89.8496 20.8625C89.7773 20.8732 89.6875 20.8548 89.611 20.7885L90.9197 19.2762C90.5396 18.9472 90.0397 18.813 89.5584 18.8838L89.8496 20.8625ZM89.6107 20.7883C89.5343 20.7221 89.5042 20.6367 89.5042 20.5666H91.5042C91.5042 20.0803 91.3 19.6055 90.92 19.2764L89.6107 20.7883ZM89.5042 20.5666V44.0477H91.5042V20.5666H89.5042ZM89.5042 44.0477C89.5042 43.9129 89.6127 43.7999 89.7542 43.7999V45.7999C90.7227 45.7999 91.5042 45.012 91.5042 44.0477H89.5042ZM90.4623 45.506L90.4624 45.5059L89.0461 44.0937L89.0461 44.0938L90.4623 45.506ZM52.1474 20.6353V44.0476H54.1474V20.6353H52.1474ZM53.1474 45.0476H89.7543V43.0476H53.1474V45.0476ZM90.7543 44.0476V20.6248H88.7543V44.0476H90.7543ZM89.6392 19.6314C89.5741 19.639 89.4231 19.6536 89.2337 19.6536V21.6536C89.5203 21.6536 89.7511 21.6319 89.8694 21.6181L89.6392 19.6314ZM89.2337 19.6536C87.0129 19.6536 85.1999 17.8396 85.1999 15.6062H83.1999C83.1999 18.939 85.9032 21.6536 89.2337 21.6536V19.6536ZM85.1999 15.6062C85.1999 15.4299 85.2105 15.3036 85.2156 15.2528L83.2258 15.051C83.215 15.1574 83.1999 15.3519 83.1999 15.6062H85.1999ZM84.2207 14.1519H58.5916V16.1519H84.2207V14.1519ZM57.5967 15.2528C57.6018 15.3037 57.6124 15.43 57.6124 15.6062H59.6124C59.6124 15.3518 59.5972 15.1573 59.5865 15.051L57.5967 15.2528ZM57.6124 15.6062C57.6124 17.8396 55.7994 19.6536 53.5786 19.6536V21.6536C56.909 21.6536 59.6124 18.9392 59.6124 15.6062H57.6124ZM53.5786 19.6536C53.4046 19.6536 53.2888 19.6443 53.2439 19.64L53.0511 21.6307C53.1537 21.6406 53.3341 21.6536 53.5786 21.6536V19.6536ZM53.1475 19.6353H53.1474V21.6353H53.1475V19.6353Z" fill="black" mask="url(#path-9-inside-4_82_231)"/>
<path d="M66.1454 83.4386H65.6454V83.4541C61.3751 83.717 57.9713 87.3239 57.9713 91.6889V92.1966C57.9713 96.7306 61.6439 100.447 66.1454 100.447H99.6828C98.1109 101.849 96.0518 102.7 93.8075 102.7H9.39862C4.51018 102.7 0.5 98.6572 0.5 93.7082V38.2919C0.5 33.3429 4.51018 29.3 9.39862 29.3H93.8075C98.6959 29.3 102.706 33.3429 102.706 38.2919V83.4386H66.1454ZM14.0669 42.1737C13.217 42.1737 12.5321 42.8725 12.5321 43.7187V44.2968C12.5321 45.1432 13.2171 45.8418 14.0669 45.8418H88.7865C89.6365 45.8418 90.3213 45.143 90.3213 44.2968V43.7187C90.3213 42.8725 89.6364 42.1737 88.7865 42.1737H14.0669ZM12.5321 58.3482C12.5321 59.1944 13.217 59.8932 14.0669 59.8932H88.7865C89.6365 59.8932 90.3213 59.1944 90.3213 58.3482V57.7701C90.3213 56.9237 89.6364 56.225 88.7865 56.225H14.0669C13.217 56.225 12.5321 56.9239 12.5321 57.7701V58.3482Z" fill="white" stroke="black"/>
<mask id="path-12-inside-5_82_231" fill="white">
<path d="M94.3024 104H9.69755C4.35034 104 0 99.6026 0 94.1975V38.6025C0 33.1974 4.35034 28.8 9.69755 28.8H94.3024C99.6497 28.8 104 33.1975 104 38.6025V84.6765H66.5761C62.4875 84.6765 59.1613 88.0388 59.1613 92.1715V92.6809C59.1613 96.8137 62.4876 100.176 66.5761 100.176H101.998L101.596 100.641C99.7471 102.776 97.0888 104 94.3024 104ZM9.69755 29.3602C4.6559 29.3602 0.55423 33.5063 0.55423 38.6024V94.1974C0.55423 99.2936 4.6559 103.44 9.69755 103.44H94.3024C96.7197 103.44 99.0353 102.461 100.748 100.736H66.5762C62.182 100.736 58.6072 97.1225 58.6072 92.6808V92.1715C58.6072 87.7298 62.182 84.1162 66.5762 84.1162H103.446V38.6024C103.446 33.5063 99.3441 29.3602 94.3025 29.3602H9.69764H9.69755ZM89.2698 60.052H14.3766C13.652 60.052 13.0624 59.456 13.0624 58.7235V58.1434C13.0624 57.4109 13.6519 56.8149 14.3766 56.8149H89.2698C89.9944 56.8149 90.584 57.4109 90.584 58.1434V58.7235C90.584 59.456 89.9944 60.052 89.2698 60.052ZM14.3766 57.3752C13.9576 57.3752 13.6166 57.7198 13.6166 58.1435V58.7236C13.6166 59.1472 13.9576 59.4919 14.3766 59.4919H89.2698C89.6889 59.4919 90.0298 59.1473 90.0298 58.7236V58.1435C90.0298 57.7198 89.6889 57.3752 89.2698 57.3752H14.3766ZM89.2698 45.9553H14.3766C13.652 45.9553 13.0624 45.3593 13.0624 44.6268V44.0467C13.0624 43.3142 13.6519 42.7182 14.3766 42.7182H89.2698C89.9944 42.7182 90.584 43.3142 90.584 44.0467V44.6268C90.584 45.3593 89.9944 45.9553 89.2698 45.9553ZM14.3766 43.2785C13.9576 43.2785 13.6166 43.6232 13.6166 44.0468V44.6269C13.6166 45.0505 13.9576 45.3952 14.3766 45.3952H89.2698C89.6889 45.3952 90.0298 45.0506 90.0298 44.6269V44.0468C90.0298 43.6233 89.6889 43.2785 89.2698 43.2785H14.3766Z"/>
</mask>
<path d="M94.3024 104H9.69755C4.35034 104 0 99.6026 0 94.1975V38.6025C0 33.1974 4.35034 28.8 9.69755 28.8H94.3024C99.6497 28.8 104 33.1975 104 38.6025V84.6765H66.5761C62.4875 84.6765 59.1613 88.0388 59.1613 92.1715V92.6809C59.1613 96.8137 62.4876 100.176 66.5761 100.176H101.998L101.596 100.641C99.7471 102.776 97.0888 104 94.3024 104ZM9.69755 29.3602C4.6559 29.3602 0.55423 33.5063 0.55423 38.6024V94.1974C0.55423 99.2936 4.6559 103.44 9.69755 103.44H94.3024C96.7197 103.44 99.0353 102.461 100.748 100.736H66.5762C62.182 100.736 58.6072 97.1225 58.6072 92.6808V92.1715C58.6072 87.7298 62.182 84.1162 66.5762 84.1162H103.446V38.6024C103.446 33.5063 99.3441 29.3602 94.3025 29.3602H9.69764H9.69755ZM89.2698 60.052H14.3766C13.652 60.052 13.0624 59.456 13.0624 58.7235V58.1434C13.0624 57.4109 13.6519 56.8149 14.3766 56.8149H89.2698C89.9944 56.8149 90.584 57.4109 90.584 58.1434V58.7235C90.584 59.456 89.9944 60.052 89.2698 60.052ZM14.3766 57.3752C13.9576 57.3752 13.6166 57.7198 13.6166 58.1435V58.7236C13.6166 59.1472 13.9576 59.4919 14.3766 59.4919H89.2698C89.6889 59.4919 90.0298 59.1473 90.0298 58.7236V58.1435C90.0298 57.7198 89.6889 57.3752 89.2698 57.3752H14.3766ZM89.2698 45.9553H14.3766C13.652 45.9553 13.0624 45.3593 13.0624 44.6268V44.0467C13.0624 43.3142 13.6519 42.7182 14.3766 42.7182H89.2698C89.9944 42.7182 90.584 43.3142 90.584 44.0467V44.6268C90.584 45.3593 89.9944 45.9553 89.2698 45.9553ZM14.3766 43.2785C13.9576 43.2785 13.6166 43.6232 13.6166 44.0468V44.6269C13.6166 45.0505 13.9576 45.3952 14.3766 45.3952H89.2698C89.6889 45.3952 90.0298 45.0506 90.0298 44.6269V44.0468C90.0298 43.6233 89.6889 43.2785 89.2698 43.2785H14.3766Z" fill="#FF450D"/>
<path d="M104 84.6765V85.6765H105V84.6765H104ZM101.998 100.176L102.754 100.831L104.187 99.1759H101.998V100.176ZM101.596 100.641L100.84 99.9859L100.84 99.9859L101.596 100.641ZM100.748 100.736L101.458 101.441L103.15 99.7361H100.748V100.736ZM103.446 84.1162V85.1162H104.446V84.1162H103.446ZM94.3024 103H9.69755V105H94.3024V103ZM9.69755 103C4.91275 103 1 99.0605 1 94.1975H-1C-1 100.145 3.78793 105 9.69755 105V103ZM1 94.1975V38.6025H-1V94.1975H1ZM1 38.6025C1 33.7395 4.91273 29.8 9.69755 29.8V27.8C3.78794 27.8 -1 32.6553 -1 38.6025H1ZM9.69755 29.8H94.3024V27.8H9.69755V29.8ZM94.3024 29.8C99.0873 29.8 103 33.7396 103 38.6025H105C105 32.6554 100.212 27.8 94.3024 27.8V29.8ZM103 38.6025V84.6765H105V38.6025H103ZM104 83.6765H66.5761V85.6765H104V83.6765ZM66.5761 83.6765C61.9251 83.6765 58.1613 87.4967 58.1613 92.1715H60.1613C60.1613 88.5809 63.0499 85.6765 66.5761 85.6765V83.6765ZM58.1613 92.1715V92.6809H60.1613V92.1715H58.1613ZM58.1613 92.6809C58.1613 97.3558 61.9252 101.176 66.5761 101.176V99.1759C63.05 99.1759 60.1613 96.2716 60.1613 92.6809H58.1613ZM66.5761 101.176H101.998V99.1759H66.5761V101.176ZM101.242 99.5213L100.84 99.9859L102.352 101.295L102.754 100.831L101.242 99.5213ZM100.84 99.9859C99.1782 101.905 96.7941 103 94.3024 103V105C97.3834 105 100.316 103.646 102.352 101.295L100.84 99.9859ZM9.69755 28.3602C4.0935 28.3602 -0.44577 32.9641 -0.44577 38.6024H1.55423C1.55423 34.0484 5.21831 30.3602 9.69755 30.3602V28.3602ZM-0.44577 38.6024V94.1974H1.55423V38.6024H-0.44577ZM-0.44577 94.1974C-0.44577 99.8358 4.0935 104.44 9.69755 104.44V102.44C5.21831 102.44 1.55423 98.7515 1.55423 94.1974H-0.44577ZM9.69755 104.44H94.3024V102.44H9.69755V104.44ZM94.3024 104.44C96.991 104.44 99.5606 103.352 101.458 101.441L100.039 100.032C98.51 101.571 96.4485 102.44 94.3024 102.44V104.44ZM100.748 99.7361H66.5762V101.736H100.748V99.7361ZM66.5762 99.7361C62.7444 99.7361 59.6072 96.5804 59.6072 92.6808H57.6072C57.6072 97.6646 61.6196 101.736 66.5762 101.736V99.7361ZM59.6072 92.6808V92.1715H57.6072V92.6808H59.6072ZM59.6072 92.1715C59.6072 88.2719 62.7444 85.1162 66.5762 85.1162V83.1162C61.6196 83.1162 57.6072 87.1877 57.6072 92.1715H59.6072ZM66.5762 85.1162H103.446V83.1162H66.5762V85.1162ZM104.446 84.1162V38.6024H102.446V84.1162H104.446ZM104.446 38.6024C104.446 32.9642 99.9065 28.3602 94.3025 28.3602V30.3602C98.7817 30.3602 102.446 34.0484 102.446 38.6024H104.446ZM94.3025 28.3602H9.69764V30.3602H94.3025V28.3602ZM9.69764 28.3602H9.69755V30.3602H9.69764V28.3602ZM89.2698 59.052H14.3766V61.052H89.2698V59.052ZM14.3766 59.052C14.2144 59.052 14.0624 58.9139 14.0624 58.7235H12.0624C12.0624 59.9981 13.0896 61.052 14.3766 61.052V59.052ZM14.0624 58.7235V58.1434H12.0624V58.7235H14.0624ZM14.0624 58.1434C14.0624 57.9529 14.2143 57.8149 14.3766 57.8149V55.8149C13.0894 55.8149 12.0624 56.8688 12.0624 58.1434H14.0624ZM14.3766 57.8149H89.2698V55.8149H14.3766V57.8149ZM89.2698 57.8149C89.432 57.8149 89.584 57.953 89.584 58.1434H91.584C91.584 56.8688 90.5568 55.8149 89.2698 55.8149V57.8149ZM89.584 58.1434V58.7235H91.584V58.1434H89.584ZM89.584 58.7235C89.584 58.9139 89.432 59.052 89.2698 59.052V61.052C90.5568 61.052 91.584 59.9981 91.584 58.7235H89.584ZM14.3766 56.3752C13.3952 56.3752 12.6166 57.1776 12.6166 58.1435H14.6166C14.6166 58.2619 14.5199 58.3752 14.3766 58.3752V56.3752ZM12.6166 58.1435V58.7236H14.6166V58.1435H12.6166ZM12.6166 58.7236C12.6166 59.6893 13.3951 60.4919 14.3766 60.4919V58.4919C14.52 58.4919 14.6166 58.6051 14.6166 58.7236H12.6166ZM14.3766 60.4919H89.2698V58.4919H14.3766V60.4919ZM89.2698 60.4919C90.2512 60.4919 91.0298 59.6895 91.0298 58.7236H89.0298C89.0298 58.6051 89.1265 58.4919 89.2698 58.4919V60.4919ZM91.0298 58.7236V58.1435H89.0298V58.7236H91.0298ZM91.0298 58.1435C91.0298 57.1778 90.2514 56.3752 89.2698 56.3752V58.3752C89.1265 58.3752 89.0298 58.2619 89.0298 58.1435H91.0298ZM89.2698 56.3752H14.3766V58.3752H89.2698V56.3752ZM89.2698 44.9553H14.3766V46.9553H89.2698V44.9553ZM14.3766 44.9553C14.2144 44.9553 14.0624 44.8172 14.0624 44.6268H12.0624C12.0624 45.9014 13.0896 46.9553 14.3766 46.9553V44.9553ZM14.0624 44.6268V44.0467H12.0624V44.6268H14.0624ZM14.0624 44.0467C14.0624 43.8563 14.2143 43.7182 14.3766 43.7182V41.7182C13.0894 41.7182 12.0624 42.7721 12.0624 44.0467H14.0624ZM14.3766 43.7182H89.2698V41.7182H14.3766V43.7182ZM89.2698 43.7182C89.432 43.7182 89.584 43.8563 89.584 44.0467H91.584C91.584 42.7721 90.5568 41.7182 89.2698 41.7182V43.7182ZM89.584 44.0467V44.6268H91.584V44.0467H89.584ZM89.584 44.6268C89.584 44.8172 89.432 44.9553 89.2698 44.9553V46.9553C90.5568 46.9553 91.584 45.9014 91.584 44.6268H89.584ZM14.3766 42.2785C13.3951 42.2785 12.6166 43.0811 12.6166 44.0468H14.6166C14.6166 44.1653 14.52 44.2785 14.3766 44.2785V42.2785ZM12.6166 44.0468V44.6269H14.6166V44.0468H12.6166ZM12.6166 44.6269C12.6166 45.5926 13.3951 46.3952 14.3766 46.3952V44.3952C14.52 44.3952 14.6166 44.5084 14.6166 44.6269H12.6166ZM14.3766 46.3952H89.2698V44.3952H14.3766V46.3952ZM89.2698 46.3952C90.2512 46.3952 91.0298 45.5928 91.0298 44.6269H89.0298C89.0298 44.5084 89.1265 44.3952 89.2698 44.3952V46.3952ZM91.0298 44.6269V44.0468H89.0298V44.6269H91.0298ZM91.0298 44.0468C91.0298 43.0813 90.2515 42.2785 89.2698 42.2785V44.2785C89.1264 44.2785 89.0298 44.1652 89.0298 44.0468H91.0298ZM89.2698 42.2785H14.3766V44.2785H89.2698V42.2785Z" fill="black" mask="url(#path-12-inside-5_82_231)"/>
<path d="M13.74 42.8999H88.6722C89.0169 42.8999 89.2099 43.1423 89.2099 43.3399V43.8599C89.2099 44.0575 89.0169 44.2999 88.6722 44.2999H13.74C13.3953 44.2999 13.2023 44.0575 13.2023 43.8599V43.3399C13.2023 43.1423 13.3953 42.8999 13.74 42.8999Z" fill="white" stroke="black"/>
<mask id="path-15-inside-6_82_231" fill="white">
<path d="M89.1848 45.5999H14.0213C13.294 45.5999 12.7023 45.0107 12.7023 44.2866V43.7132C12.7023 42.9891 13.2939 42.3999 14.0213 42.3999H89.1848C89.9121 42.3999 90.5038 42.9891 90.5038 43.7132V44.2866C90.5038 45.0107 89.9121 45.5999 89.1848 45.5999ZM14.0213 42.9538C13.6007 42.9538 13.2585 43.2944 13.2585 43.7133V44.2867C13.2585 44.7055 13.6007 45.0462 14.0213 45.0462H89.1848C89.6054 45.0462 89.9476 44.7056 89.9476 44.2867V43.7133C89.9476 43.2945 89.6055 42.9538 89.1848 42.9538H14.0213Z"/>
</mask>
<path d="M89.1848 45.5999H14.0213C13.294 45.5999 12.7023 45.0107 12.7023 44.2866V43.7132C12.7023 42.9891 13.2939 42.3999 14.0213 42.3999H89.1848C89.9121 42.3999 90.5038 42.9891 90.5038 43.7132V44.2866C90.5038 45.0107 89.9121 45.5999 89.1848 45.5999ZM14.0213 42.9538C13.6007 42.9538 13.2585 43.2944 13.2585 43.7133V44.2867C13.2585 44.7055 13.6007 45.0462 14.0213 45.0462H89.1848C89.6054 45.0462 89.9476 44.7056 89.9476 44.2867V43.7133C89.9476 43.2945 89.6055 42.9538 89.1848 42.9538H14.0213Z" fill="#FF450D"/>
<path d="M89.1848 44.5999H14.0213V46.5999H89.1848V44.5999ZM14.0213 44.5999C13.8422 44.5999 13.7023 44.4543 13.7023 44.2866H11.7023C11.7023 45.5671 12.7458 46.5999 14.0213 46.5999V44.5999ZM13.7023 44.2866V43.7132H11.7023V44.2866H13.7023ZM13.7023 43.7132C13.7023 43.5454 13.8421 43.3999 14.0213 43.3999V41.3999C12.7457 41.3999 11.7023 42.4327 11.7023 43.7132H13.7023ZM14.0213 43.3999H89.1848V41.3999H14.0213V43.3999ZM89.1848 43.3999C89.3639 43.3999 89.5038 43.5455 89.5038 43.7132H91.5038C91.5038 42.4327 90.4602 41.3999 89.1848 41.3999V43.3999ZM89.5038 43.7132V44.2866H91.5038V43.7132H89.5038ZM89.5038 44.2866C89.5038 44.4543 89.3639 44.5999 89.1848 44.5999V46.5999C90.4602 46.5999 91.5038 45.5671 91.5038 44.2866H89.5038ZM14.0213 41.9538C13.0526 41.9538 12.2585 42.7379 12.2585 43.7133H14.2585C14.2585 43.8509 14.1488 43.9538 14.0213 43.9538V41.9538ZM12.2585 43.7133V44.2867H14.2585V43.7133H12.2585ZM12.2585 44.2867C12.2585 45.2619 13.0525 46.0462 14.0213 46.0462V44.0462C14.1488 44.0462 14.2585 44.1491 14.2585 44.2867H12.2585ZM14.0213 46.0462H89.1848V44.0462H14.0213V46.0462ZM89.1848 46.0462C90.1535 46.0462 90.9476 45.2621 90.9476 44.2867H88.9476C88.9476 44.1491 89.0573 44.0462 89.1848 44.0462V46.0462ZM90.9476 44.2867V43.7133H88.9476V44.2867H90.9476ZM90.9476 43.7133C90.9476 42.7382 90.1537 41.9538 89.1848 41.9538V43.9538C89.0572 43.9538 88.9476 43.8508 88.9476 43.7133H90.9476ZM89.1848 41.9538H14.0213V43.9538H89.1848V41.9538Z" fill="black" mask="url(#path-15-inside-6_82_231)"/>
<path d="M13.74 57.3H88.6722C89.0169 57.3 89.2099 57.5424 89.2099 57.74V58.2601C89.2099 58.4577 89.0169 58.7 88.6722 58.7H13.74C13.3953 58.7 13.2023 58.4577 13.2023 58.2601V57.74C13.2023 57.5424 13.3953 57.3 13.74 57.3Z" fill="white" stroke="black"/>
<mask id="path-18-inside-7_82_231" fill="white">
<path d="M89.1848 60H14.0213C13.294 60 12.7023 59.4109 12.7023 58.6868V58.1133C12.7023 57.3892 13.2939 56.8 14.0213 56.8H89.1848C89.9121 56.8 90.5038 57.3892 90.5038 58.1133V58.6868C90.5038 59.4109 89.9121 60 89.1848 60ZM14.0213 57.3539C13.6007 57.3539 13.2585 57.6945 13.2585 58.1134V58.6869C13.2585 59.1056 13.6007 59.4463 14.0213 59.4463H89.1848C89.6054 59.4463 89.9476 59.1057 89.9476 58.6869V58.1134C89.9476 57.6946 89.6055 57.3539 89.1848 57.3539H14.0213Z"/>
</mask>
<path d="M89.1848 60H14.0213C13.294 60 12.7023 59.4109 12.7023 58.6868V58.1133C12.7023 57.3892 13.2939 56.8 14.0213 56.8H89.1848C89.9121 56.8 90.5038 57.3892 90.5038 58.1133V58.6868C90.5038 59.4109 89.9121 60 89.1848 60ZM14.0213 57.3539C13.6007 57.3539 13.2585 57.6945 13.2585 58.1134V58.6869C13.2585 59.1056 13.6007 59.4463 14.0213 59.4463H89.1848C89.6054 59.4463 89.9476 59.1057 89.9476 58.6869V58.1134C89.9476 57.6946 89.6055 57.3539 89.1848 57.3539H14.0213Z" fill="#FF450D"/>
<path d="M89.1848 59H14.0213V61H89.1848V59ZM14.0213 59C13.8422 59 13.7023 58.8545 13.7023 58.6868H11.7023C11.7023 59.9673 12.7458 61 14.0213 61V59ZM13.7023 58.6868V58.1133H11.7023V58.6868H13.7023ZM13.7023 58.1133C13.7023 57.9456 13.8421 57.8 14.0213 57.8V55.8C12.7457 55.8 11.7023 56.8329 11.7023 58.1133H13.7023ZM14.0213 57.8H89.1848V55.8H14.0213V57.8ZM89.1848 57.8C89.3639 57.8 89.5038 57.9456 89.5038 58.1133H91.5038C91.5038 56.8328 90.4602 55.8 89.1848 55.8V57.8ZM89.5038 58.1133V58.6868H91.5038V58.1133H89.5038ZM89.5038 58.6868C89.5038 58.8545 89.3639 59 89.1848 59V61C90.4602 61 91.5038 59.9673 91.5038 58.6868H89.5038ZM14.0213 56.3539C13.0526 56.3539 12.2585 57.1381 12.2585 58.1134H14.2585C14.2585 58.251 14.1488 58.3539 14.0213 58.3539V56.3539ZM12.2585 58.1134V58.6869H14.2585V58.1134H12.2585ZM12.2585 58.6869C12.2585 59.662 13.0525 60.4463 14.0213 60.4463V58.4463C14.1488 58.4463 14.2585 58.5492 14.2585 58.6869H12.2585ZM14.0213 60.4463H89.1848V58.4463H14.0213V60.4463ZM89.1848 60.4463C90.1535 60.4463 90.9476 59.6622 90.9476 58.6869H88.9476C88.9476 58.5493 89.0573 58.4463 89.1848 58.4463V60.4463ZM90.9476 58.6869V58.1134H88.9476V58.6869H90.9476ZM90.9476 58.1134C90.9476 57.1383 90.1537 56.3539 89.1848 56.3539V58.3539C89.0572 58.3539 88.9476 58.251 88.9476 58.1134H90.9476ZM89.1848 56.3539H14.0213V58.3539H89.1848V56.3539Z" fill="black" mask="url(#path-18-inside-7_82_231)"/>
<path d="M102.706 84.5V93.7647C102.706 95.9409 101.936 97.9409 100.658 99.5H66.3744C62.4632 99.5 59.2478 96.2454 59.2478 92.2537V91.7463C59.2478 87.7546 62.4632 84.5 66.3744 84.5H102.706Z" fill="white" stroke="black"/>
<mask id="path-21-inside-8_82_231" fill="white">
<path d="M101.521 100.8H66.6921C62.3116 100.8 58.7478 97.1473 58.7478 92.6574V92.1426C58.7478 87.6527 62.3116 84 66.6921 84H104V94.1905C104 96.5824 103.149 98.8954 101.603 100.703L101.521 100.8H101.521ZM66.6921 84.5663C62.6162 84.5663 59.3003 87.9651 59.3003 92.1426V92.6574C59.3003 96.835 62.6163 100.234 66.6921 100.234H101.269C102.675 98.5436 103.447 96.4026 103.447 94.1905V84.5663H66.692H66.6921Z"/>
</mask>
<path d="M101.521 100.8H66.6921C62.3116 100.8 58.7478 97.1473 58.7478 92.6574V92.1426C58.7478 87.6527 62.3116 84 66.6921 84H104V94.1905C104 96.5824 103.149 98.8954 101.603 100.703L101.521 100.8H101.521ZM66.6921 84.5663C62.6162 84.5663 59.3003 87.9651 59.3003 92.1426V92.6574C59.3003 96.835 62.6163 100.234 66.6921 100.234H101.269C102.675 98.5436 103.447 96.4026 103.447 94.1905V84.5663H66.692H66.6921Z" fill="#FF450D"/>
<path d="M104 84H105V83H104V84ZM101.603 100.703L100.843 100.054L100.843 100.054L101.603 100.703ZM101.521 100.8V101.8H101.982L102.281 101.45L101.521 100.8ZM101.269 100.234V101.234H101.738L102.038 100.873L101.269 100.234ZM103.447 84.5663H104.447V83.5663H103.447V84.5663ZM101.521 99.8H66.6921V101.8H101.521V99.8ZM66.6921 99.8C62.887 99.8 59.7478 96.6184 59.7478 92.6574H57.7478C57.7478 97.6762 61.7362 101.8 66.6921 101.8V99.8ZM59.7478 92.6574V92.1426H57.7478V92.6574H59.7478ZM59.7478 92.1426C59.7478 88.1816 62.887 85 66.6921 85V83C61.7362 83 57.7478 87.1238 57.7478 92.1426H59.7478ZM66.6921 85H104V83H66.6921V85ZM103 84V94.1905H105V84H103ZM103 94.1905C103 96.3456 102.233 98.4279 100.843 100.054L102.363 101.353C104.065 99.3629 105 96.8191 105 94.1905H103ZM100.843 100.054L100.761 100.15L102.281 101.45L102.364 101.353L100.843 100.054ZM101.521 99.8H101.521V101.8H101.521V99.8ZM66.6921 83.5663C62.0408 83.5663 58.3003 87.4362 58.3003 92.1426H60.3003C60.3003 88.4939 63.1916 85.5663 66.6921 85.5663V83.5663ZM58.3003 92.1426V92.6574H60.3003V92.1426H58.3003ZM58.3003 92.6574C58.3003 97.3639 62.0409 101.234 66.6921 101.234V99.2337C63.1917 99.2337 60.3003 96.3061 60.3003 92.6574H58.3003ZM66.6921 101.234H101.269V99.2337H66.6921V101.234ZM102.038 100.873C103.593 99.0025 104.447 96.635 104.447 94.1905H102.447C102.447 96.1702 101.756 98.0847 100.5 99.5943L102.038 100.873ZM104.447 94.1905V84.5663H102.447V94.1905H104.447ZM103.447 83.5663H66.692V85.5663H103.447V83.5663ZM66.692 85.5663H66.6921V83.5663H66.692V85.5663Z" fill="black" mask="url(#path-21-inside-8_82_231)"/>
<path d="M13.74 42.8999H88.6722C89.0169 42.8999 89.2099 43.1423 89.2099 43.3399V43.8599C89.2099 44.0575 89.0169 44.2999 88.6722 44.2999H13.74C13.3953 44.2999 13.2023 44.0575 13.2023 43.8599V43.3399C13.2023 43.1423 13.3953 42.8999 13.74 42.8999Z" fill="white" stroke="black"/>
<mask id="path-24-inside-9_82_231" fill="white">
<path d="M89.1848 45.5999H14.0213C13.294 45.5999 12.7023 45.0107 12.7023 44.2866V43.7132C12.7023 42.9891 13.2939 42.3999 14.0213 42.3999H89.1848C89.9121 42.3999 90.5038 42.9891 90.5038 43.7132V44.2866C90.5038 45.0107 89.9121 45.5999 89.1848 45.5999ZM14.0213 42.9538C13.6007 42.9538 13.2585 43.2944 13.2585 43.7133V44.2867C13.2585 44.7055 13.6007 45.0462 14.0213 45.0462H89.1848C89.6054 45.0462 89.9476 44.7056 89.9476 44.2867V43.7133C89.9476 43.2945 89.6055 42.9538 89.1848 42.9538H14.0213Z"/>
</mask>
<path d="M89.1848 45.5999H14.0213C13.294 45.5999 12.7023 45.0107 12.7023 44.2866V43.7132C12.7023 42.9891 13.2939 42.3999 14.0213 42.3999H89.1848C89.9121 42.3999 90.5038 42.9891 90.5038 43.7132V44.2866C90.5038 45.0107 89.9121 45.5999 89.1848 45.5999ZM14.0213 42.9538C13.6007 42.9538 13.2585 43.2944 13.2585 43.7133V44.2867C13.2585 44.7055 13.6007 45.0462 14.0213 45.0462H89.1848C89.6054 45.0462 89.9476 44.7056 89.9476 44.2867V43.7133C89.9476 43.2945 89.6055 42.9538 89.1848 42.9538H14.0213Z" fill="#FF450D"/>
<path d="M89.1848 44.5999H14.0213V46.5999H89.1848V44.5999ZM14.0213 44.5999C13.8422 44.5999 13.7023 44.4543 13.7023 44.2866H11.7023C11.7023 45.5671 12.7458 46.5999 14.0213 46.5999V44.5999ZM13.7023 44.2866V43.7132H11.7023V44.2866H13.7023ZM13.7023 43.7132C13.7023 43.5454 13.8421 43.3999 14.0213 43.3999V41.3999C12.7457 41.3999 11.7023 42.4327 11.7023 43.7132H13.7023ZM14.0213 43.3999H89.1848V41.3999H14.0213V43.3999ZM89.1848 43.3999C89.3639 43.3999 89.5038 43.5455 89.5038 43.7132H91.5038C91.5038 42.4327 90.4602 41.3999 89.1848 41.3999V43.3999ZM89.5038 43.7132V44.2866H91.5038V43.7132H89.5038ZM89.5038 44.2866C89.5038 44.4543 89.3639 44.5999 89.1848 44.5999V46.5999C90.4602 46.5999 91.5038 45.5671 91.5038 44.2866H89.5038ZM14.0213 41.9538C13.0526 41.9538 12.2585 42.7379 12.2585 43.7133H14.2585C14.2585 43.8509 14.1488 43.9538 14.0213 43.9538V41.9538ZM12.2585 43.7133V44.2867H14.2585V43.7133H12.2585ZM12.2585 44.2867C12.2585 45.2619 13.0525 46.0462 14.0213 46.0462V44.0462C14.1488 44.0462 14.2585 44.1491 14.2585 44.2867H12.2585ZM14.0213 46.0462H89.1848V44.0462H14.0213V46.0462ZM89.1848 46.0462C90.1535 46.0462 90.9476 45.2621 90.9476 44.2867H88.9476C88.9476 44.1491 89.0573 44.0462 89.1848 44.0462V46.0462ZM90.9476 44.2867V43.7133H88.9476V44.2867H90.9476ZM90.9476 43.7133C90.9476 42.7382 90.1537 41.9538 89.1848 41.9538V43.9538C89.0572 43.9538 88.9476 43.8508 88.9476 43.7133H90.9476ZM89.1848 41.9538H14.0213V43.9538H89.1848V41.9538Z" fill="black" mask="url(#path-24-inside-9_82_231)"/>
<path d="M13.74 57.3H88.6722C89.0169 57.3 89.2099 57.5424 89.2099 57.74V58.2601C89.2099 58.4577 89.0169 58.7 88.6722 58.7H13.74C13.3953 58.7 13.2023 58.4577 13.2023 58.2601V57.74C13.2023 57.5424 13.3953 57.3 13.74 57.3Z" fill="white" stroke="black"/>
<mask id="path-27-inside-10_82_231" fill="white">
<path d="M89.1848 60H14.0213C13.294 60 12.7023 59.4109 12.7023 58.6868V58.1133C12.7023 57.3892 13.2939 56.8 14.0213 56.8H89.1848C89.9121 56.8 90.5038 57.3892 90.5038 58.1133V58.6868C90.5038 59.4109 89.9121 60 89.1848 60ZM14.0213 57.3539C13.6007 57.3539 13.2585 57.6945 13.2585 58.1134V58.6869C13.2585 59.1056 13.6007 59.4463 14.0213 59.4463H89.1848C89.6054 59.4463 89.9476 59.1057 89.9476 58.6869V58.1134C89.9476 57.6946 89.6055 57.3539 89.1848 57.3539H14.0213Z"/>
</mask>
<path d="M89.1848 60H14.0213C13.294 60 12.7023 59.4109 12.7023 58.6868V58.1133C12.7023 57.3892 13.2939 56.8 14.0213 56.8H89.1848C89.9121 56.8 90.5038 57.3892 90.5038 58.1133V58.6868C90.5038 59.4109 89.9121 60 89.1848 60ZM14.0213 57.3539C13.6007 57.3539 13.2585 57.6945 13.2585 58.1134V58.6869C13.2585 59.1056 13.6007 59.4463 14.0213 59.4463H89.1848C89.6054 59.4463 89.9476 59.1057 89.9476 58.6869V58.1134C89.9476 57.6946 89.6055 57.3539 89.1848 57.3539H14.0213Z" fill="#FF450D"/>
<path d="M89.1848 59H14.0213V61H89.1848V59ZM14.0213 59C13.8422 59 13.7023 58.8545 13.7023 58.6868H11.7023C11.7023 59.9673 12.7458 61 14.0213 61V59ZM13.7023 58.6868V58.1133H11.7023V58.6868H13.7023ZM13.7023 58.1133C13.7023 57.9456 13.8421 57.8 14.0213 57.8V55.8C12.7457 55.8 11.7023 56.8329 11.7023 58.1133H13.7023ZM14.0213 57.8H89.1848V55.8H14.0213V57.8ZM89.1848 57.8C89.3639 57.8 89.5038 57.9456 89.5038 58.1133H91.5038C91.5038 56.8328 90.4602 55.8 89.1848 55.8V57.8ZM89.5038 58.1133V58.6868H91.5038V58.1133H89.5038ZM89.5038 58.6868C89.5038 58.8545 89.3639 59 89.1848 59V61C90.4602 61 91.5038 59.9673 91.5038 58.6868H89.5038ZM14.0213 56.3539C13.0526 56.3539 12.2585 57.1381 12.2585 58.1134H14.2585C14.2585 58.251 14.1488 58.3539 14.0213 58.3539V56.3539ZM12.2585 58.1134V58.6869H14.2585V58.1134H12.2585ZM12.2585 58.6869C12.2585 59.662 13.0525 60.4463 14.0213 60.4463V58.4463C14.1488 58.4463 14.2585 58.5492 14.2585 58.6869H12.2585ZM14.0213 60.4463H89.1848V58.4463H14.0213V60.4463ZM89.1848 60.4463C90.1535 60.4463 90.9476 59.6622 90.9476 58.6869H88.9476C88.9476 58.5493 89.0573 58.4463 89.1848 58.4463V60.4463ZM90.9476 58.6869V58.1134H88.9476V58.6869H90.9476ZM90.9476 58.1134C90.9476 57.1383 90.1537 56.3539 89.1848 56.3539V58.3539C89.0572 58.3539 88.9476 58.251 88.9476 58.1134H90.9476ZM89.1848 56.3539H14.0213V58.3539H89.1848V56.3539Z" fill="black" mask="url(#path-27-inside-10_82_231)"/>
<path d="M102.706 84.5V93.7647C102.706 95.9409 101.936 97.9409 100.658 99.5H66.3744C62.4632 99.5 59.2478 96.2454 59.2478 92.2537V91.7463C59.2478 87.7546 62.4632 84.5 66.3744 84.5H102.706Z" fill="white" stroke="black"/>
<mask id="path-30-inside-11_82_231" fill="white">
<path d="M101.521 100.8H66.6921C62.3116 100.8 58.7478 97.1473 58.7478 92.6574V92.1426C58.7478 87.6527 62.3116 84 66.6921 84H104V94.1905C104 96.5824 103.149 98.8954 101.603 100.703L101.521 100.8H101.521ZM66.6921 84.5663C62.6162 84.5663 59.3003 87.9651 59.3003 92.1426V92.6574C59.3003 96.835 62.6163 100.234 66.6921 100.234H101.269C102.675 98.5436 103.447 96.4026 103.447 94.1905V84.5663H66.692H66.6921Z"/>
</mask>
<path d="M101.521 100.8H66.6921C62.3116 100.8 58.7478 97.1473 58.7478 92.6574V92.1426C58.7478 87.6527 62.3116 84 66.6921 84H104V94.1905C104 96.5824 103.149 98.8954 101.603 100.703L101.521 100.8H101.521ZM66.6921 84.5663C62.6162 84.5663 59.3003 87.9651 59.3003 92.1426V92.6574C59.3003 96.835 62.6163 100.234 66.6921 100.234H101.269C102.675 98.5436 103.447 96.4026 103.447 94.1905V84.5663H66.692H66.6921Z" fill="#FF450D"/>
<path d="M104 84H105V83H104V84ZM101.603 100.703L100.843 100.054L100.843 100.054L101.603 100.703ZM101.521 100.8V101.8H101.982L102.281 101.45L101.521 100.8ZM101.269 100.234V101.234H101.738L102.038 100.873L101.269 100.234ZM103.447 84.5663H104.447V83.5663H103.447V84.5663ZM101.521 99.8H66.6921V101.8H101.521V99.8ZM66.6921 99.8C62.887 99.8 59.7478 96.6184 59.7478 92.6574H57.7478C57.7478 97.6762 61.7362 101.8 66.6921 101.8V99.8ZM59.7478 92.6574V92.1426H57.7478V92.6574H59.7478ZM59.7478 92.1426C59.7478 88.1816 62.887 85 66.6921 85V83C61.7362 83 57.7478 87.1238 57.7478 92.1426H59.7478ZM66.6921 85H104V83H66.6921V85ZM103 84V94.1905H105V84H103ZM103 94.1905C103 96.3456 102.233 98.4279 100.843 100.054L102.363 101.353C104.065 99.3629 105 96.8191 105 94.1905H103ZM100.843 100.054L100.761 100.15L102.281 101.45L102.364 101.353L100.843 100.054ZM101.521 99.8H101.521V101.8H101.521V99.8ZM66.6921 83.5663C62.0408 83.5663 58.3003 87.4362 58.3003 92.1426H60.3003C60.3003 88.4939 63.1916 85.5663 66.6921 85.5663V83.5663ZM58.3003 92.1426V92.6574H60.3003V92.1426H58.3003ZM58.3003 92.6574C58.3003 97.3639 62.0409 101.234 66.6921 101.234V99.2337C63.1917 99.2337 60.3003 96.3061 60.3003 92.6574H58.3003ZM66.6921 101.234H101.269V99.2337H66.6921V101.234ZM102.038 100.873C103.593 99.0025 104.447 96.635 104.447 94.1905H102.447C102.447 96.1702 101.756 98.0847 100.5 99.5943L102.038 100.873ZM104.447 94.1905V84.5663H102.447V94.1905H104.447ZM103.447 83.5663H66.692V85.5663H103.447V83.5663ZM66.692 85.5663H66.6921V83.5663H66.692V85.5663Z" fill="black" mask="url(#path-30-inside-11_82_231)"/>
<path d="M71.7442 92C71.7442 93.9366 70.1873 95.5 68.2748 95.5C66.3622 95.5 64.8053 93.9366 64.8053 92C64.8053 90.0634 66.3622 88.5 68.2748 88.5C70.1873 88.5 71.7442 90.0634 71.7442 92Z" fill="white" stroke="black"/>
<mask id="path-33-inside-12_82_231" fill="white">
<path d="M68.6717 96.8C66.2641 96.8 64.3053 94.8262 64.3053 92.4C64.3053 89.9739 66.2641 88 68.6717 88C71.0793 88 73.0381 89.9738 73.0381 92.4C73.0381 94.8263 71.0793 96.8 68.6717 96.8ZM68.6717 88.5622C66.5717 88.5622 64.8632 90.2838 64.8632 92.4C64.8632 94.5162 66.5717 96.2378 68.6717 96.2378C70.7717 96.2378 72.4802 94.5162 72.4802 92.4C72.4802 90.2839 70.7717 88.5622 68.6717 88.5622Z"/>
</mask>
<path d="M68.6717 96.8C66.2641 96.8 64.3053 94.8262 64.3053 92.4C64.3053 89.9739 66.2641 88 68.6717 88C71.0793 88 73.0381 89.9738 73.0381 92.4C73.0381 94.8263 71.0793 96.8 68.6717 96.8ZM68.6717 88.5622C66.5717 88.5622 64.8632 90.2838 64.8632 92.4C64.8632 94.5162 66.5717 96.2378 68.6717 96.2378C70.7717 96.2378 72.4802 94.5162 72.4802 92.4C72.4802 90.2839 70.7717 88.5622 68.6717 88.5622Z" fill="#FF450D"/>
<path d="M68.6717 95.8C66.8236 95.8 65.3053 94.2812 65.3053 92.4H63.3053C63.3053 95.3713 65.7046 97.8 68.6717 97.8V95.8ZM65.3053 92.4C65.3053 90.5189 66.8236 89 68.6717 89V87C65.7046 87 63.3053 89.4288 63.3053 92.4H65.3053ZM68.6717 89C70.5199 89 72.0381 90.5188 72.0381 92.4H74.0381C74.0381 89.4287 71.6388 87 68.6717 87V89ZM72.0381 92.4C72.0381 94.2812 70.5199 95.8 68.6717 95.8V97.8C71.6388 97.8 74.0381 95.3714 74.0381 92.4H72.0381ZM68.6717 87.5622C66.0122 87.5622 63.8632 89.7388 63.8632 92.4H65.8632C65.8632 90.8289 67.1312 89.5622 68.6717 89.5622V87.5622ZM63.8632 92.4C63.8632 95.0613 66.0122 97.2378 68.6717 97.2378V95.2378C67.1312 95.2378 65.8632 93.9712 65.8632 92.4H63.8632ZM68.6717 97.2378C71.3312 97.2378 73.4802 95.0612 73.4802 92.4H71.4802C71.4802 93.9711 70.2122 95.2378 68.6717 95.2378V97.2378ZM73.4802 92.4C73.4802 89.7389 71.3313 87.5622 68.6717 87.5622V89.5622C70.2122 89.5622 71.4802 90.829 71.4802 92.4H73.4802Z" fill="black" mask="url(#path-33-inside-12_82_231)"/>
</svg>
